<svg xmlns="http://www.w3.org/2000/svg" xmlns:xlink="http://www.w3.org/1999/xlink" width="3478.2" height="2516.7"><style>.st0{fill:#fff}.st1,.st3{clip-path:url(#SVGID_2_);fill:#f1f2f2}.st3{fill:#fff}.st5{fill:#fc2c38}.st6{fill-rule:evenodd;clip-rule:evenodd;fill:#fff}</style><path class="st0" d="M3153.582 2191.513h-1920v-1080h1920z"/><defs><path id="SVGID_1_" transform="rotate(-180 2193.59 1645.507)" d="M1233.6 1105.5h1920v1080h-1920z"/></defs><clipPath id="SVGID_2_"><use xlink:href="#SVGID_1_" overflow="visible"/></clipPath><path class="st1" d="M2657.1 2089.5c-101.4-.3-197.7-38.9-271.1-108.7-71.9-68.3-115.2-159.9-122.2-258.5h43.5c14.5 181.3 167.3 323.1 349.8 323.8 81.1-.3 159.9-28.8 222.5-80.4l30.9 30.9c-70.8 59.6-160.6 92.6-253.4 92.9z"/><path class="st1" d="M2082.5 1895.1c-22.8-64.9-34.4-132.9-34.5-202.2.3-82 16.6-161.5 48.5-236.4 30.8-72.3 74.8-137.2 130.7-192.9 55.9-55.7 121-99.4 193.4-130 74.9-31.6 154.5-47.6 236.6-47.6h1.1c67.8.1 134.4 11.3 197.8 33.2 61.4 21.2 118.8 52 170.6 91.6 51.3 39.2 95.8 85.9 132.4 139 36.1 52.4 63.6 109.8 81.8 170.5l-42.3 10.3c-71.9-236.1-293.4-400.9-540.3-401.3h-1c-310.7 0-564.5 252.8-565.7 563.6 0 63.5 10.6 125.9 31.4 185.5l-40.5 16.7zM3168.8 1933.9c35.5-75.1 53.7-155.4 54-239 0-33.4-3-67-8.9-99.9l42.3-10.3c6.6 36.3 10 73.4 10 110.3-.3 90.8-20.2 178.1-58.9 259.4l-38.5-20.5zM2656.1 2301.9c-117.7-.2-231.8-34-330.1-97.8-94.2-61.2-169.6-146.8-218.1-247.8l40.3-16.6c94.2 193.5 293.1 318.5 507.9 318.9h1c196.4 0 375.5-99.5 479.9-266.5l38.6 20.5c-53.2 86-127.4 158.1-215.1 208.5-91.9 52.9-196.8 80.9-303.4 80.9 0-.1-1-.1-1-.1z"/><path class="st1" d="M2657.1 2409.9c-186.9-.3-363.7-72.2-497.7-202.5-65.2-63.4-117.1-137.4-154.3-220-37.7-83.7-58.6-172.9-62.2-265.1h43.4c15 361 308.7 643.6 670.7 644.2 166.5-.3 325.9-62 449.5-173.8l30.9 30.9c-131.6 119.9-302 186-480.3 186.3z"/><path d="M2657.1 1767.9c-19.9 0-38.6-7.7-52.7-21.6-14.1-13.9-22-32.5-22.3-52.3.3-19.8 8.3-38.4 22.3-52.3 14.1-14 32.8-21.6 52.7-21.6 19.9 0 38.6 7.7 52.7 21.6 14.1 13.9 22 32.5 22.3 52.3-.3 19.8-8.3 38.4-22.3 52.3-14.1 13.9-32.8 21.6-52.7 21.6z" clip-path="url(#SVGID_2_)" fill="#d1d3d4"/><path class="st1" d="M2657.1 1982.6c-59.7-.3-116.8-18.5-165.3-52.8l29.3-32.6c40.3 27.3 87.2 41.8 136 42.1 134.7-.7 244.2-110.7 244.2-245.3 0-134.6-109.5-244.6-244.1-245.3-134.7.7-244.2 110.7-244.2 245.3 0 58.4 20.8 114.7 58.7 159.1l-29.3 32.6c-47-52.9-72.9-120.7-72.9-191.7 0-76.9 29.9-149.3 84.2-203.8 54.3-54.5 126.5-84.6 203.4-84.9 76.8.3 149.1 30.5 203.3 84.9 54.3 54.5 84.2 126.8 84.2 203.8 0 76.9-29.9 149.3-84.2 203.7-54.2 54.4-126.4 84.6-203.3 84.9zM1943.4 1656.1c9.5-182.1 87.2-351.9 219.2-478.6 133.6-128.3 309.3-199.1 494.5-199.4 82.3.1 163.1 14.1 239.9 41.6 72.7 26 140.4 63.5 201.2 111.4l-28.2 33.4c-119-93.3-261.7-142.7-412.9-143-357 .6-650.5 279-670.3 634.7h-43.4zM3153.5 2145.9c112.8-124.1 174.9-284.4 174.9-451.9 0-182.7-75.9-359.6-208.4-486.2l28.3-33.4c69.2 65.6 123.8 142.8 162.3 229.6 40.6 91.5 61.2 189.1 61.2 290 0 179.4-66.5 350.6-187.4 482.9l-30.9-31z"/><path class="st1" d="M2926.6 1918.9c52.6-63.1 81.5-142.9 81.5-225 0-95.8-37.8-185.1-106.4-252l26.8-34.6c37.7 35.9 67.6 78.1 88.8 125.5 22.7 50.8 34.2 105 34.2 161.1 0 93.9-33.3 184.5-94 255.9l-30.9-30.9zM2264.6 1656.1c9.2-96.4 53.3-185.7 124.6-252 73-67.8 168.2-105.4 267.9-105.7 78.8.2 154.7 23.5 219.7 67.5l-26.7 34.5c-57.4-38.1-124-58.3-193-58.5-180.6.6-329.8 135.4-348.9 314.2h-43.6z"/><path class="st1" d="M2657.7 2196.1c-114.2 0-226.3-39.8-315.7-112.1-44.5-36-82.1-78.8-111.9-127.3-30.8-50.2-52.5-105.2-64.2-163.5-24.1-119.4-4.2-242.9 56.2-348.5l36.4 24.2c-54 95.9-71.8 207.9-50 315.7 43.1 213.3 232.2 368.1 449.7 368.1 30 0 60.2-3 89.8-8.9 237.5-48.6 395.9-273.2 362.6-512.5l42.6-8.6c18.2 126-11.7 252.8-84.5 357.8-74 106.7-184.9 179.8-312.1 205.8-32.6 6.5-65.9 9.8-98.9 9.8.1 0 .1 0 0 0zM3096.8 1566.5c-56.4-195.3-237-331.3-440.7-331.3-30 0-60.2 3-89.8 8.9-107.9 22.1-204 82.2-271.3 169.5l-36.4-24.2c73.7-96.8 179.7-163.5 299.1-187.9 32.6-6.5 65.8-9.8 98.8-9.8 224.5 0 422.3 150.3 483 366.1l-42.7 8.7z"/><path class="st1" d="M2657.1 1875.8c-48.3-.3-93.7-19.4-127.8-53.6-34.1-34.3-52.9-79.8-52.9-128.2 0-39 12.1-76 35.1-107.3l30.6 32.1c-14.6 22.4-22.3 48.4-22.3 75.2 0 75.6 61.6 137.7 137.3 138.4 65.4-.6 121.2-46.7 134.4-110.1h44.1c-13.7 87.3-89.4 152.9-178.5 153.5zM2789.2 1656.1c-16.7-58.8-70.5-100-132-100.6-23.5.2-46.5 6.4-66.8 17.9l-30.8-32.2c29.1-18.9 62.7-28.9 97.6-29.1 85.7.6 159.1 60.8 176.7 144h-44.7zM2657.1 2516.7c-206.2-.3-403-77.1-554.8-216.4l30.9-31c143.7 131.3 329.6 203.7 523.9 204 421.9-.7 762.6-330.1 777.6-751h43.4c-3.6 106.7-27.4 209.8-70.6 306.7-42.5 95.3-102.2 180.7-177.2 253.9-75.1 73.3-162.1 130.8-258.5 170.9-99.7 41.6-205.6 62.7-314.7 62.9z"/><path class="st3" d="M2657.1 1737.8c-24.2 0-43.8-19.7-43.8-43.8 0-24.2 19.7-43.8 43.8-43.8h.2c24.1.1 43.7 19.7 43.7 43.8 0 3.4-.3 6.2-.9 8.9v.1l-.4 1.6c-.9 2.9-2.5 5.2-4.6 6.8-2 1.5-4.4 2.3-6.9 2.3h-.9c-2.8-.2-5.4-1.5-7.3-3.5 2 2.1 4.7 3.2 7.3 3.5h.9c4.3 0 9.9-2.7 11.8-10.2.7-3.2 1.1-6.4 1.1-9.5 0-24.1-19.6-43.8-43.8-43.8s-43.8 19.6-43.8 43.8 19.5 43.7 43.6 43.8c7-.1 13.8-1.7 20-4.9l.1.1c-6.2 3.1-13 4.8-20.1 4.8zm0-24.1c-10.9 0-19.7-8.8-19.7-19.7 0-10.9 8.8-19.7 19.7-19.7s19.7 8.8 19.7 19.7v8c0 2.3.5 4.3 1.4 6l-2.8-4.4-4.4 4.4c-3.6 3.6-8.6 5.7-13.9 5.7zm0-39.4c-10.8 0-19.6 8.8-19.6 19.6s8.8 19.6 19.6 19.6 19.6-8.8 19.6-19.6c.1-10.8-8.8-19.6-19.6-19.6z"/><path class="st3" d="M2657.3 1645.1h-.2c-26.9 0-48.8 21.9-48.8 48.8s21.9 48.8 48.8 48.8c9.9 0 19.4-2.9 27.5-8.5l.1-.1-6.6-7.6-.1.1c-6.3 4-13.5 6.2-20.9 6.2-21.4 0-38.8-17.4-38.8-38.8s17.4-38.8 38.8-38.8 38.8 17.4 38.8 38.8c0 2.8-.3 5.6-.9 8.3-1.2 4.7-4.4 6.4-6.9 6.4h-.5c-2.7-.2-5.8-2.1-5.8-6.8v-8c0-13.6-11.1-24.7-24.7-24.7s-24.7 11.1-24.7 24.7 11.1 24.7 24.7 24.7c6.6 0 12.8-2.6 17.5-7.3 2.7 4.2 7.2 6.9 12.2 7.3.4 0 .9.1 1.3.1 3.6 0 7.1-1.2 9.9-3.3 2.9-2.2 5.1-5.4 6.3-9.3.2-.6.5-2.1.5-2.1v-.1c.7-3.1 1-6.2 1-10 .1-26.8-21.7-48.7-48.5-48.8zm-.2 63.5c-8.1 0-14.7-6.6-14.7-14.7s6.6-14.7 14.7-14.7 14.7 6.6 14.7 14.7-6.6 14.7-14.7 14.7z"/><path class="st1" d="M821.6 1218.3c-101.4-.3-197.7-38.9-271.1-108.7-71.9-68.3-115.2-159.9-122.2-258.5h43.5c14.5 181.3 167.3 323.1 349.8 323.8 81.1-.3 159.9-28.8 222.5-80.4l30.9 30.9c-70.8 59.6-160.6 92.6-253.4 92.9z"/><path class="st1" d="M246.9 1023.9C224.1 959 212.5 891 212.4 821.7c.3-82 16.6-161.5 48.5-236.4 30.8-72.3 74.8-137.2 130.7-192.9 55.9-55.7 121-99.4 193.4-130 74.9-31.6 154.5-47.6 236.6-47.6h1.1c67.8.1 134.4 11.3 197.8 33.2 61.4 21.2 118.8 52 170.6 91.6 51.3 39.2 95.8 85.9 132.4 139 36.1 52.4 63.6 109.8 81.8 170.5l-42.3 10.3c-71.9-236.1-293.4-400.9-540.3-401.3h-1C511 258.1 257.2 510.9 256 821.7c0 63.5 10.6 125.9 31.4 185.5l-40.5 16.7zM1333.2 1062.7c35.5-75.1 53.7-155.4 54-239 0-33.4-3-67-8.9-99.9l42.3-10.3c6.6 36.3 10 73.4 10 110.3-.3 90.8-20.2 178.1-58.9 259.4l-38.5-20.5zM820.5 1430.7c-117.7-.2-231.8-34-330.1-97.8-94.2-61.2-169.6-146.8-218.1-247.8l40.3-16.6c94.2 193.5 293.1 318.5 507.9 318.9h1c196.4 0 375.5-99.5 479.9-266.5l38.6 20.5c-53.2 86-127.4 158.1-215.1 208.5-91.9 52.9-196.8 80.9-303.4 80.9.1-.1-1-.1-1-.1z"/><path class="st1" d="M821.6 1538.7c-186.9-.3-363.7-72.2-497.7-202.5-65.2-63.4-117.1-137.4-154.3-220-37.7-83.7-58.6-172.9-62.2-265.1h43.4c15 361 308.7 643.6 670.7 644.2 166.5-.3 325.9-62 449.5-173.8l30.9 30.9c-131.6 119.9-302 186-480.3 186.3z"/><path d="M821.6 896.7c-19.9 0-38.6-7.7-52.7-21.6-14.1-13.9-22-32.5-22.3-52.3.3-19.8 8.3-38.4 22.3-52.3 14.1-14 32.8-21.6 52.7-21.6 19.9 0 38.6 7.7 52.7 21.6 14.1 13.9 22 32.5 22.3 52.3-.3 19.8-8.3 38.4-22.3 52.3-14.2 13.9-32.9 21.6-52.7 21.6z" clip-path="url(#SVGID_2_)" fill="#fc2c38"/><path class="st1" d="M821.6 1111.4c-59.7-.3-116.8-18.5-165.3-52.8l29.3-32.6c40.3 27.3 87.2 41.8 136 42.1 134.7-.7 244.2-110.7 244.2-245.3 0-134.6-109.5-244.6-244.1-245.3-134.7.7-244.2 110.7-244.2 245.3 0 58.4 20.8 114.7 58.7 159.1l-29.3 32.6c-47-52.9-72.9-120.7-72.9-191.7 0-76.9 29.9-149.3 84.2-203.8 54.3-54.5 126.5-84.6 203.4-84.9 76.8.3 149.1 30.5 203.3 84.9 54.3 54.5 84.2 126.8 84.2 203.8 0 76.9-29.9 149.3-84.2 203.7-54.3 54.5-126.5 84.6-203.3 84.9zM107.8 784.9c9.5-182.2 87.2-352 219.2-478.7 133.6-128.3 309.3-199.1 494.5-199.4 82.3.1 163.1 14.1 239.9 41.6 72.7 26 140.4 63.5 201.2 111.4l-28.2 33.4c-119-93.3-261.7-142.7-412.9-143-357 .6-650.5 279-670.3 634.7h-43.4zM1318 1274.7c112.8-124.1 174.9-284.4 174.9-451.9 0-182.7-75.9-359.6-208.4-486.2l28.3-33.4c69.2 65.6 123.8 142.8 162.3 229.6 40.6 91.5 61.2 189.1 61.2 290 0 179.4-66.5 350.6-187.4 482.9l-30.9-31z"/><path class="st1" d="M1091 1047.7c52.6-63.1 81.5-142.9 81.5-225 0-95.8-37.8-185.1-106.4-252l26.8-34.6c37.7 35.9 67.6 78.1 88.8 125.5 22.7 50.8 34.2 105 34.2 161.1 0 93.9-33.3 184.5-94 255.9l-30.9-30.9zM429 784.9c9.2-96.4 53.3-185.7 124.6-252 73-67.8 168.2-105.4 267.9-105.7 78.8.2 154.7 23.5 219.7 67.5l-26.7 34.5c-57.4-38.1-124-58.3-193-58.5-180.5.6-329.7 135.3-348.8 314.2H429z"/><path class="st1" d="M822.2 1324.9c-114.2 0-226.3-39.8-315.7-112.1-44.5-36-82.1-78.8-111.9-127.3-30.8-50.2-52.5-105.2-64.2-163.5-24.1-119.4-4.2-242.9 56.2-348.5l36.4 24.2c-54 95.9-71.8 207.9-50 315.7 43.1 213.3 232.2 368.1 449.7 368.1 30 0 60.2-3 89.8-8.9 237.5-48.6 395.9-273.2 362.6-512.5l42.6-8.6c18.2 126-11.7 252.8-84.5 357.8-74 106.7-184.9 179.8-312.1 205.8-32.7 6.5-65.9 9.8-98.9 9.8zM1261.2 695.3C1204.8 500 1024.2 364 820.5 364c-30 0-60.2 3-89.8 8.9-107.9 22.1-204 82.2-271.3 169.5L423 518.2c73.7-96.8 179.7-163.5 299.1-187.9 32.6-6.5 65.8-9.8 98.8-9.8 224.5 0 422.3 150.3 483 366.1l-42.7 8.7z"/><path class="st1" d="M821.6 1004.6c-48.3-.3-93.7-19.4-127.8-53.6-34.1-34.3-52.9-79.8-52.9-128.2 0-39 12.1-76 35.1-107.3l30.6 32.1C692 770 684.3 796 684.3 822.8c0 75.6 61.6 137.7 137.3 138.4 65.4-.6 121.2-46.7 134.4-110.1h44.1c-13.7 87.3-89.5 153-178.5 153.5zM953.6 784.9c-16.7-58.8-70.5-100-132-100.6-23.5.2-46.5 6.4-66.8 17.9L724 670c29.1-18.9 62.7-28.9 97.6-29.1 85.7.6 159.1 60.8 176.7 144h-44.7zM219.8 1382.5C78 1229.8 0 1031.3 0 822.7c0-207 77.1-404.5 217.1-556.8l31 31C116 441.1 43.4 627.6 43.4 822.7c0 196.6 73.6 384.1 207.3 528.7l-30.9 31.1zM1598.7 784.9C1578.8 369.3 1238.3 44 821.6 43.4 625.8 43.7 438.9 117 294.8 250l-31-31C416 78.1 613.9.3 821.6 0c213.8.3 416.3 82.2 570.1 230.7 74.8 72.2 134.6 156.6 177.6 250.9 43.7 95.7 68.2 197.7 73 303.3h-43.6zM821.6 1645.5c-206.2-.3-403-77.1-554.8-216.4l30.9-31c143.7 131.3 329.6 203.7 523.9 204 421.9-.7 762.6-330.1 777.6-751h43.4c-3.6 106.7-27.4 209.8-70.6 306.7-42.5 95.3-102.2 180.7-177.2 253.9-75.1 73.3-162.1 130.8-258.5 170.9-99.8 41.6-205.7 62.7-314.7 62.9z"/><path class="st3" d="M821.6 866.6c-24.2 0-43.8-19.7-43.8-43.8 0-24.2 19.7-43.8 43.8-43.8h.2c24.1.1 43.7 19.7 43.7 43.8 0 3.4-.3 6.2-.9 8.9v.1l-.4 1.6c-.9 2.9-2.5 5.2-4.6 6.8-2 1.5-4.4 2.3-6.9 2.3h-.9c-2.8-.2-5.4-1.5-7.3-3.5 2 2.1 4.7 3.2 7.3 3.5h.9c4.3 0 9.9-2.7 11.8-10.2.7-3.2 1.1-6.4 1.1-9.5 0-24.1-19.6-43.8-43.8-43.8S778 798.6 778 822.8c-.2 24.1 19.4 43.7 43.6 43.8 7-.1 13.8-1.7 20-4.9l.1.1c-6.3 3.1-13.1 4.8-20.1 4.8zm0-24.1c-10.9 0-19.7-8.8-19.7-19.7 0-10.9 8.8-19.7 19.7-19.7s19.7 8.8 19.7 19.7v8c0 2.3.5 4.3 1.4 6l-2.8-4.4-4.4 4.4c-3.7 3.6-8.7 5.7-13.9 5.7zm0-39.4c-10.8 0-19.6 8.8-19.6 19.6s8.8 19.6 19.6 19.6 19.6-8.8 19.6-19.6-8.8-19.6-19.6-19.6z"/><path class="st3" d="M821.7 773.9h-.2c-26.9 0-48.8 21.9-48.8 48.8s21.9 48.8 48.8 48.8c9.9 0 19.4-2.9 27.5-8.5l.1-.1-6.6-7.6-.1.1c-6.3 4-13.5 6.2-20.9 6.2-21.4 0-38.8-17.4-38.8-38.8s17.4-38.8 38.8-38.8 38.8 17.4 38.8 38.8c0 2.8-.3 5.6-.9 8.3-1.2 4.7-4.4 6.4-6.9 6.4h-.5c-2.7-.2-5.8-2.1-5.8-6.8v-8c0-13.6-11.1-24.7-24.7-24.7s-24.7 11.1-24.7 24.7 11.1 24.7 24.7 24.7c6.6 0 12.8-2.6 17.5-7.3 2.7 4.2 7.2 6.9 12.2 7.3.4 0 .9.1 1.3.1 3.6 0 7.1-1.2 9.9-3.3 2.9-2.2 5.1-5.4 6.3-9.3.2-.6.5-2.1.5-2.1v-.1c.7-3.1 1-6.2 1-10 .2-26.8-21.6-48.7-48.5-48.8zm-.1 63.5c-8.1 0-14.7-6.6-14.7-14.7s6.6-14.7 14.7-14.7 14.7 6.6 14.7 14.7c-.1 8.2-6.6 14.7-14.7 14.7z"/><g><circle class="st5" cx="2661.6" cy="1433.1" r="57.5"/><path class="st6" d="M2694.8 1438.9l-29.8 28.5 4 3.8 29.5-28.3zM2665.3 1407.2h-30.8v30.8l26.6 25.7 30-28.7-25.8-27.8zm-13.8 22.2c-3.4 0-6.1-2.7-6.1-6.1 0-3.4 2.7-6.1 6.1-6.1 3.4 0 6.1 2.7 6.1 6.1 0 3.4-2.8 6.1-6.1 6.1z"/></g><g><circle class="st5" cx="2924.4" cy="1702.3" r="57.7"/><path class="st0" d="M2952.4 1677.5H2936c0 6.4-5.2 11.6-11.6 11.6-6.4 0-11.6-5.2-11.6-11.6h-16.5l-12.7 13.4 10.2 8.9 9-9.1 6.9 13.5h29l6.9-13.5 9 9.1 10.2-8.9-12.4-13.4zM2910.5 1710.1l-8.5 26.8h44.7l-8.4-26.8z"/></g><g><circle class="st5" cx="2924.4" cy="1433.8" r="57.5"/><path class="st6" d="M2884.384 1425.996v-5.9h80.1v5.9zM2959.3 1431.8l-7.4 31.5h-55.6l-7.4-31.5z"/><path class="st6" d="M2892.26 1420.298l14.99-16.239 4.335 4.002-14.99 16.24zM2937.26 1407.77l4.336-4.002 14.99 16.239-4.335 4.002z"/></g><g><circle class="st5" cx="2391.4" cy="1965.7" r="57.5"/><path class="st6" d="M2391.4 1972.2l41.4-19.7-41.4-19.8-41.5 19.8z"/><path class="st6" d="M2391.3 1979.1l-23.4-10.8v25.6h46.7v-25.5z"/></g><g><circle class="st5" cx="2924.1" cy="1965.7" r="57.7"/><path class="st0" d="M2924.1 1932.1l-36.2 22.2h72.5zM2892.1 1960.3v33.7h24.5v-19.8h15v19.8h24.5v-33.7h-32z"/></g><g><circle class="st5" cx="2664.4" cy="1965.7" r="57.5"/><path class="st6" d="M2645 1993.2h40.2v5.8H2645zM2688.3 1940.2h-12.1l-10.9 18.4-10.9-18.4h-12.5l-16 16.4 8.7 11.2 10.3-5.5v24.9h40.2v-24.9l9.3 5.5 10.3-11.2-16.4-16.4z"/></g><g><circle class="st5" cx="2391.4" cy="1433.8" r="57.5"/><path class="st6" d="M2419.9 1424.6h-1.7l-6.4-18.1h-41.7l-6.4 18.1h-8.9v5.8h6.5v29.4h11.3v-9.2h36v9.2h11.3v-29.4h6.5v-5.8h-6.5zm-46.1-13.6h34.4l4.9 13.5h-44.3l5-13.5zm8.3 28.7h-13.6v-5.8h13.6v5.8zm31.7 0h-13.6v-5.8h13.6v5.8z"/></g><g><circle class="st5" cx="2391.4" cy="1699.8" r="57.5"/><path class="st6" d="M2391.4 1670.9c-18 0-32.9 8.1-32.9 18.2h65.8c-.1-10.5-15-18.2-32.9-18.2zM2424.3 1694.9h-12.4l-6.3 6.5-6.8-6.5h-40.4c-2.7 0-4.9 2.2-4.9 4.9s2.2 4.9 4.9 4.9h65.9c2.7 0 4.9-2.2 4.9-4.9s-2.2-4.9-4.9-4.9zM2391.4 1728.6c18 0 32.9-8.1 32.9-18.2h-65.8c0 10.6 14.9 18.2 32.9 18.2z"/></g></svg>