<svg xmlns="http://www.w3.org/2000/svg" width="2244.6" height="1538.7"><style>.st0{fill:#fff}.st1{fill:#f1f2f2}.st4{fill:#fc2c38}.st5{fill-rule:evenodd;clip-rule:evenodd;fill:#fff}</style><path class="st0" d="M0 133.5h1920v1080H0"/><path class="st1" d="M1423.5 1111.4c-101.4-.3-197.7-38.9-271.1-108.7-71.9-68.3-115.2-159.9-122.2-258.5h43.5c14.5 181.3 167.3 323.1 349.8 323.8 81.1-.3 159.9-28.8 222.5-80.4l30.9 30.9c-70.8 59.7-160.6 92.7-253.4 92.9z"/><path class="st1" d="M848.9 917.1c-22.8-64.9-34.4-132.9-34.5-202.2.3-82 16.6-161.5 48.5-236.4 30.8-72.3 74.8-137.2 130.7-192.9 55.9-55.7 121-99.4 193.4-130 74.9-31.6 154.5-47.6 236.6-47.6h1.1c67.8.1 134.4 11.3 197.8 33.2 61.4 21.2 118.8 52 170.6 91.6 51.3 39.2 95.8 85.9 132.4 139 36.1 52.4 63.6 109.8 81.8 170.5l-42.3 10.3c-71.9-236.1-293.4-400.9-540.3-401.3h-1c-310.7 0-564.5 252.8-565.7 563.6 0 63.5 10.6 125.9 31.4 185.5l-40.5 16.7zM1935.2 955.9c35.5-75.1 53.7-155.4 54-239 0-33.4-3-67-8.9-99.9l42.3-10.3c6.6 36.3 10 73.4 10 110.3-.3 90.8-20.2 178.1-58.9 259.4l-38.5-20.5zM1422.5 1323.9c-117.7-.2-231.8-34-330.1-97.8-94.2-61.2-169.6-146.8-218.1-247.8l40.3-16.6c94.2 193.5 293.1 318.5 507.9 318.9h1c196.4 0 375.5-99.5 479.9-266.5l38.6 20.5c-53.2 86-127.4 158.1-215.1 208.5-91.9 52.9-196.8 80.9-303.4 80.9.1-.1-1-.1-1-.1z"/><path class="st1" d="M1423.5 1431.9c-186.9-.3-363.7-72.2-497.7-202.5-65.2-63.4-117.1-137.4-154.3-220-37.7-83.7-58.6-172.9-62.2-265.1h43.4c15 361 308.7 643.6 670.7 644.2 166.5-.3 325.9-62 449.5-173.8l30.9 30.9c-131.6 119.9-302 186-480.3 186.3z"/><path d="M1423.5 789.9c-19.9 0-38.6-7.7-52.7-21.6-14.1-13.9-22-32.5-22.3-52.3.3-19.8 8.3-38.4 22.3-52.3 14.1-14 32.8-21.6 52.7-21.6 19.9 0 38.6 7.7 52.7 21.6 14.1 13.9 22 32.5 22.3 52.3-.3 19.8-8.3 38.4-22.3 52.3-14.1 13.9-32.8 21.6-52.7 21.6z" fill="#d1d3d4"/><path class="st1" d="M1423.5 1004.6c-59.7-.3-116.8-18.5-165.3-52.8l29.3-32.6c40.3 27.3 87.2 41.8 136 42.1 134.7-.7 244.2-110.7 244.2-245.3 0-134.6-109.5-244.6-244.1-245.3-134.7.7-244.2 110.7-244.2 245.3 0 58.4 20.8 114.7 58.7 159.1l-29.3 32.6c-47-52.9-72.9-120.7-72.9-191.7 0-76.9 29.9-149.3 84.2-203.8 54.3-54.5 126.5-84.6 203.4-84.9 76.8.3 149.1 30.5 203.3 84.9C1681.1 566.7 1711 639 1711 716c0 76.9-29.9 149.3-84.2 203.7-54.2 54.4-126.4 84.6-203.3 84.9zM709.8 678.1c9.5-182.2 87.2-352 219.2-478.7C1062.6 71.1 1238.2.3 1423.5 0c82.3.1 163.1 14.1 239.9 41.6 72.7 26 140.4 63.5 201.2 111.4l-28.2 33.4c-119-93.3-261.7-142.7-412.9-143-357 .6-650.5 279-670.3 634.7h-43.4zM1919.9 1167.9c112.8-124.1 174.9-284.4 174.9-451.9 0-182.7-75.9-359.6-208.4-486.2l28.3-33.4C1983.9 262 2038.5 339.2 2077 426c40.6 91.5 61.2 189.1 61.2 290 0 179.4-66.5 350.6-187.4 482.9l-30.9-31z"/><path class="st1" d="M1693 940.9c52.6-63.1 81.5-142.9 81.5-225 0-95.8-37.8-185.1-106.4-252l26.8-34.6c37.7 35.9 67.6 78.1 88.8 125.5 22.7 50.8 34.2 105 34.2 161.1 0 93.9-33.3 184.5-94 255.9l-30.9-30.9zM1031 678.1c9.2-96.4 53.3-185.7 124.6-252 73-67.8 168.2-105.4 267.9-105.7 78.8.2 154.7 23.5 219.7 67.5l-26.7 34.5c-57.4-38.1-124-58.3-193-58.5-180.6.6-329.8 135.4-348.9 314.2H1031z"/><path class="st1" d="M1424.2 1218.1c-114.2 0-226.3-39.8-315.7-112.1-44.5-36-82.1-78.8-111.9-127.3-30.8-50.2-52.5-105.2-64.2-163.5-24.1-119.4-4.2-242.9 56.2-348.5l36.4 24.2c-54 95.9-71.8 207.9-50 315.7 43.1 213.3 232.2 368.1 449.7 368.1 30 0 60.2-3 89.8-8.9 237.5-48.6 395.9-273.2 362.6-512.5l42.6-8.6c18.2 126-11.7 252.8-84.5 357.8-74 106.7-184.9 179.8-312.1 205.8-32.7 6.5-66 9.8-98.9 9.8zM1863.2 588.5c-56.4-195.3-237-331.3-440.7-331.3-30 0-60.2 3-89.8 8.9-107.9 22.1-204 82.2-271.3 169.5l-36.4-24.2c73.7-96.8 179.7-163.5 299.1-187.9 32.6-6.5 65.8-9.8 98.8-9.8 224.5 0 422.3 150.3 483 366.1l-42.7 8.7z"/><path class="st1" d="M1423.5 897.8c-48.3-.3-93.7-19.4-127.8-53.6-34.1-34.3-52.9-79.8-52.9-128.2 0-39 12.1-76 35.1-107.3l30.6 32.1c-14.6 22.4-22.3 48.4-22.3 75.2 0 75.6 61.6 137.7 137.3 138.4 65.4-.6 121.2-46.7 134.4-110.1h44.1c-13.7 87.3-89.4 152.9-178.5 153.5zM1555.6 678.1c-16.7-58.8-70.5-100-132-100.6-23.5.2-46.5 6.4-66.8 17.9l-30.8-32.2c29.1-18.9 62.7-28.9 97.6-29.1 85.7.6 159.1 60.8 176.7 144h-44.7zM1423.5 1538.7c-206.2-.3-403-77.1-554.8-216.4l30.9-31c143.7 131.3 329.6 203.7 523.9 204 421.9-.7 762.6-330.1 777.6-751h43.4c-3.6 106.7-27.4 209.8-70.6 306.7-42.5 95.3-102.2 180.7-177.2 253.9-75.1 73.3-162.1 130.8-258.5 170.9-99.7 41.6-205.6 62.7-314.7 62.9z"/><path class="st0" d="M1423.5 759.8c-24.2 0-43.8-19.7-43.8-43.8 0-24.2 19.7-43.8 43.8-43.8h.2c24.1.1 43.7 19.7 43.7 43.8 0 3.4-.3 6.2-.9 8.9v.1l-.4 1.6c-.9 2.9-2.5 5.2-4.6 6.8-2 1.5-4.4 2.3-6.9 2.3h-.9c-2.8-.2-5.4-1.5-7.3-3.5 2 2.1 4.7 3.2 7.3 3.5h.9c4.3 0 9.9-2.7 11.8-10.2.7-3.2 1.1-6.4 1.1-9.5 0-24.1-19.6-43.8-43.8-43.8s-43.8 19.6-43.8 43.8 19.5 43.7 43.6 43.8c7-.1 13.8-1.7 20-4.9l.1.1c-6.2 3.1-13 4.8-20.1 4.8zm0-24.1c-10.9 0-19.7-8.8-19.7-19.7 0-10.9 8.8-19.7 19.7-19.7s19.7 8.8 19.7 19.7v8c0 2.3.5 4.3 1.4 6l-2.8-4.4-4.4 4.4c-3.6 3.6-8.6 5.7-13.9 5.7zm0-39.4c-10.8 0-19.6 8.8-19.6 19.6s8.8 19.6 19.6 19.6 19.6-8.8 19.6-19.6c.1-10.8-8.7-19.6-19.6-19.6z"/><path class="st0" d="M1423.7 667.1h-.2c-26.9 0-48.8 21.9-48.8 48.8s21.9 48.8 48.8 48.8c9.9 0 19.4-2.9 27.5-8.5l.1-.1-6.6-7.6-.1.1c-6.3 4-13.5 6.2-20.9 6.2-21.4 0-38.8-17.4-38.8-38.8s17.4-38.8 38.8-38.8 38.8 17.4 38.8 38.8c0 2.8-.3 5.6-.9 8.3-1.2 4.7-4.4 6.4-6.9 6.4h-.5c-2.7-.2-5.8-2.1-5.8-6.8v-8c0-13.6-11.1-24.7-24.7-24.7s-24.7 11.1-24.7 24.7 11.1 24.7 24.7 24.7c6.6 0 12.8-2.6 17.5-7.3 2.7 4.2 7.2 6.9 12.2 7.3.4 0 .9.1 1.3.1 3.6 0 7.1-1.2 9.9-3.3 2.9-2.2 5.1-5.4 6.3-9.3.2-.6.5-2.1.5-2.1v-.1c.7-3.1 1-6.2 1-10 .1-26.8-21.7-48.7-48.5-48.8zm-.2 63.5c-8.1 0-14.7-6.6-14.7-14.7s6.6-14.7 14.7-14.7 14.7 6.6 14.7 14.7-6.6 14.7-14.7 14.7z"/><path fill="none" d="M0 127.5h1920v1080H0"/><circle class="st4" cx="1428" cy="455.1" r="57.5"/><path class="st5" d="M1461.2 460.9l-29.8 28.5 4 3.8 29.5-28.3zM1431.7 429.2h-30.8V460l26.6 25.7 30-28.7-25.8-27.8zm-13.8 22.2c-3.4 0-6.1-2.7-6.1-6.1 0-3.4 2.7-6.1 6.1-6.1 3.4 0 6.1 2.7 6.1 6.1 0 3.4-2.7 6.1-6.1 6.1z"/><circle class="st4" cx="1690.8" cy="724.3" r="57.7"/><path class="st0" d="M1718.8 699.5h-16.5c0 6.4-5.2 11.6-11.6 11.6-6.4 0-11.6-5.2-11.6-11.6h-16.5l-12.7 13.4 10.2 8.9 9-9.1 6.9 13.5h29l6.9-13.5 9 9.1 10.2-8.9-12.3-13.4zM1676.9 732.1l-8.4 26.8H1713.1l-8.4-26.8z"/><circle class="st4" cx="1690.8" cy="455.8" r="57.5"/><path class="st5" d="M1650.795 448.004v-5.9h80.1v5.9zM1725.7 453.8l-7.4 31.5h-55.6l-7.4-31.5z"/><path class="st5" d="M1658.635 442.234l14.99-16.24 4.336 4.002-14.99 16.24zM1703.652 429.851l4.335-4.002 14.99 16.24-4.335 4.001z"/><g><circle class="st4" cx="1157.8" cy="987.7" r="57.5"/><path class="st5" d="M1157.8 994.2l41.4-19.7-41.4-19.8-41.5 19.8z"/><path class="st5" d="M1157.8 1001.1l-23.5-10.8v25.6h46.7v-25.5z"/></g><g><circle class="st4" cx="1690.5" cy="987.7" r="57.7"/><path class="st0" d="M1690.5 954.1l-36.2 22.2H1726.8zM1658.5 982.3v33.6h24.5v-19.7h15v19.7h24.6v-33.6h-32.1z"/></g><g><circle class="st4" cx="1430.8" cy="987.7" r="57.5"/><path class="st5" d="M1411.4 1015.1h40.2v5.8h-40.2zM1454.8 962.2h-12.1l-10.9 18.4-10.9-18.4h-12.5l-16 16.4 8.7 11.2 10.3-5.5v24.9h40.2v-24.9l9.3 5.5 10.3-11.2-16.4-16.4z"/></g><g><circle class="st4" cx="1157.8" cy="455.8" r="57.5"/><path class="st5" d="M1186.4 446.6h-1.7l-6.4-18.1h-41.7l-6.4 18.1h-8.9v5.8h6.5v29.4h11.3v-9.2h36v9.2h11.3v-29.4h6.5v-5.8h-6.5zm-46.2-13.6h34.4l4.9 13.5h-44.3l5-13.5zm8.3 28.7h-13.6v-5.8h13.6v5.8zm31.7 0h-13.6v-5.8h13.6v5.8z"/></g><g><circle class="st4" cx="1157.8" cy="721.8" r="57.5"/><path class="st5" d="M1157.8 692.9c-18 0-32.9 8.1-32.9 18.2h65.8c-.1-10.5-15-18.2-32.9-18.2zM1190.7 716.9h-12.4l-6.3 6.5-6.8-6.5h-40.4c-2.7 0-4.9 2.2-4.9 4.9s2.2 4.9 4.9 4.9h65.9c2.7 0 4.9-2.2 4.9-4.9s-2.2-4.9-4.9-4.9zM1157.8 750.6c18 0 32.9-8.1 32.9-18.2h-65.8c0 10.6 14.9 18.2 32.9 18.2z"/></g></svg>