<svg xmlns="http://www.w3.org/2000/svg" xmlns:xlink="http://www.w3.org/1999/xlink" width="51.9" height="51.9"><style></style><defs><path id="SVGID_1_" d="M0 0h51.9v51.9H0z"/></defs><clipPath id="SVGID_2_"><use xlink:href="#SVGID_1_" overflow="visible"/></clipPath><path d="M51.9 26c0-14.3-11.6-26-26-26S0 11.6 0 26s11.6 26 26 26 25.9-11.7 25.9-26" clip-path="url(#SVGID_2_)" fill="#db323f"/><path d="M40 21.9h-.8l-3.1-8.7H16l-3.1 8.7H8.8v2.8h3.1V38.7h5.4v-4.4h17.3v4.4H40V24.6h3.1v-2.8H40zm-22.1-6.5h16.5l2.4 6.5H15.5l2.4-6.5zm3.9 13.7h-6.5v-2.8h6.5v2.8zm15.3 0h-6.5v-2.8h6.5v2.8z" clip-path="url(#SVGID_2_)" fill-rule="evenodd" clip-rule="evenodd" fill="#fff"/></svg>