<svg xmlns="http://www.w3.org/2000/svg" xmlns:xlink="http://www.w3.org/1999/xlink" width="51.9" height="51.9"><style>.st1{clip-path:url(#SVGID_2_);fill-rule:evenodd;clip-rule:evenodd;fill:#fff}</style><defs><path id="SVGID_1_" d="M0 0h51.9v51.9H0z"/></defs><clipPath id="SVGID_2_"><use xlink:href="#SVGID_1_" overflow="visible"/></clipPath><path d="M51.9 26c0-14.3-11.6-26-26-26S0 11.6 0 26c0 14.3 11.6 26 26 26s25.9-11.7 25.9-26" clip-path="url(#SVGID_2_)" fill="#fc2c38"/><path class="st1" d="M28 41.1l1.8 1.7L43.2 30l-1.7-1.8zM39.8 26.5L28.2 13.9H14.3v13.9l12 11.6 13.5-12.9zM21.9 24c-1.5 0-2.7-1.2-2.7-2.7 0-1.5 1.2-2.7 2.7-2.7 1.5 0 2.7 1.2 2.7 2.7.1 1.4-1.1 2.7-2.7 2.7"/></svg>