<svg xmlns="http://www.w3.org/2000/svg" xmlns:xlink="http://www.w3.org/1999/xlink" width="51.9" height="51.9"><style>.st1{clip-path:url(#SVGID_2_);fill:#fff}</style><defs><path id="SVGID_1_" d="M0 0h51.9v51.9H0z"/></defs><clipPath id="SVGID_2_"><use xlink:href="#SVGID_1_" overflow="visible"/></clipPath><path d="M51.9 26c0-14.3-11.6-26-26-26S0 11.6 0 26c0 14.3 11.6 26 26 26s25.9-11.7 25.9-26" clip-path="url(#SVGID_2_)" fill="#fc2c38"/><path class="st1" d="M38.3 14.2h-7.1c0 2.8-2.2 5-5 5s-5-2.2-5-5h-7.1l-5.4 5.7 4.4 3.8 3.9-3.9 3 5.8h12.5l3-5.8 3.9 3.9 4.4-3.8-5.5-5.7zM20.2 28.2l-3.6 11.5H35.8l-3.6-11.5z"/></svg>