<svg xmlns="http://www.w3.org/2000/svg" xmlns:xlink="http://www.w3.org/1999/xlink" width="51.9" height="51.9"><style>.st1{clip-path:url(#SVGID_2_);fill-rule:evenodd;clip-rule:evenodd;fill:#fff}</style><defs><path id="SVGID_1_" d="M0 0h51.9v51.9H0z"/></defs><clipPath id="SVGID_2_"><use xlink:href="#SVGID_1_" overflow="visible"/></clipPath><path d="M51.9 26c0-14.3-11.6-26-26-26S0 11.6 0 26c0 14.3 11.6 26 26 26s25.9-11.7 25.9-26" clip-path="url(#SVGID_2_)" fill="#fc2c38"/><path class="st1" d="M26 12.2c-8.5 0-15.6 3.9-15.6 8.6h31.3c-.1-4.9-7.2-8.6-15.7-8.6M41.6 23.6h-5.9l-3 3.1-3.2-3.1H10.3C9 23.6 8 24.7 8 26s1 2.3 2.3 2.3h31.4c1.3 0 2.3-1 2.3-2.3s-1.1-2.4-2.4-2.4M26 39.7c8.5 0 15.6-3.9 15.6-8.6H10.3c0 4.9 7.1 8.6 15.7 8.6"/></svg>