<svg xmlns="http://www.w3.org/2000/svg" xmlns:xlink="http://www.w3.org/1999/xlink" width="66.4" height="66.4"><style>.st1{clip-path:url(#SVGID_2_);fill:#fff}</style><path fill="#fff" d="M0 22.1v44.3h15.5V22.1z"/><defs><path id="SVGID_1_" d="M0 0h66.4v66.4H0z"/></defs><clipPath id="SVGID_2_"><use xlink:href="#SVGID_1_" overflow="visible"/></clipPath><path class="st1" d="M7.7 0C3.5 0 0 3.5 0 7.7s3.5 7.7 7.7 7.7 7.7-3.5 7.7-7.7S12 0 7.7 0M66 35.7c-1-8.3-4.9-13.6-16.2-13.6-6.7 0-11.2 2.5-13 6h-.2v-6H24.3v44.2h12.9V44.4c0-5.8 1.1-11.4 8.2-11.4 7 0 7.6 6.6 7.6 11.8v21.6h13.3V42c.1-2.2 0-4.3-.3-6.3"/></svg>