<svg xmlns="http://www.w3.org/2000/svg" xmlns:xlink="http://www.w3.org/1999/xlink" width="157.8" height="157.8"><style>.st0{clip-path:url(#SVGID_2_);fill:#fff}</style><defs><path id="SVGID_1_" d="M0 0h157.8v157.8H0z"/></defs><clipPath id="SVGID_2_"><use xlink:href="#SVGID_1_" overflow="visible"/></clipPath><path class="st0" d="M112.9 157.8h-68C20.2 157.8 0 137.7 0 112.9v-68C0 20.2 20.2 0 44.9 0h68c24.8 0 44.9 20.2 44.9 44.9v68c0 24.8-20.1 44.9-44.9 44.9m-68-144.3c-17.3 0-31.4 14.1-31.4 31.4v68c0 17.3 14.1 31.4 31.4 31.4h68c17.3 0 31.4-14.1 31.4-31.4v-68c0-17.3-14.1-31.4-31.4-31.4h-68z"/><path class="st0" d="M78.9 119.3c-22.3 0-40.4-18.1-40.4-40.4 0-22.3 18.1-40.4 40.4-40.4s40.4 18.1 40.4 40.4c0 22.3-18.1 40.4-40.4 40.4m0-67.3C64.1 52 52 64.1 52 78.9s12.1 26.9 26.9 26.9 26.9-12.1 26.9-26.9S93.7 52 78.9 52M130.8 36.2c0 5.4-4.3 9.7-9.7 9.7-5.4 0-9.7-4.3-9.7-9.7 0-5.4 4.3-9.7 9.7-9.7 5.3 0 9.7 4.3 9.7 9.7"/></svg>