<svg xmlns="http://www.w3.org/2000/svg" xmlns:xlink="http://www.w3.org/1999/xlink" width="51.9" height="51.9"><style></style><defs><path id="SVGID_1_" d="M0 0h51.9v51.9H0z"/></defs><clipPath id="SVGID_2_"><use xlink:href="#SVGID_1_" overflow="visible"/></clipPath><path d="M51.9 26c0-14.3-11.6-26-26-26C11.6 0 0 11.6 0 26s11.6 26 26 26c14.3-.1 25.9-11.7 25.9-26" clip-path="url(#SVGID_2_)" fill="#fc2c38"/><path d="M24.2 39.9v-3.2c-2.3-.1-4.5-.8-5.8-1.5l1-4c1.4.8 3.5 1.5 5.7 1.5 2 0 3.3-.8 3.3-2.1s-1.1-2.1-3.7-3c-3.7-1.2-6.2-2.9-6.2-6.3 0-3 2.1-5.4 5.8-6.1V12h3.4v3c2.3.1 3.8.6 5 1.1l-1 3.9c-.9-.4-2.5-1.2-4.9-1.2-2.2 0-2.9 1-2.9 1.9 0 1.1 1.2 1.8 4.1 2.9 4.1 1.4 5.7 3.3 5.7 6.4 0 3-2.1 5.6-6.1 6.3v3.5h-3.4z" clip-path="url(#SVGID_2_)" fill="#fff"/></svg>