<?xml version="1.0" encoding="utf-8"?>
<!-- Generator: Adobe Illustrator 22.0.1, SVG Export Plug-In . SVG Version: 6.00 Build 0)  -->
<svg version="1.1" id="Layer_1" xmlns="http://www.w3.org/2000/svg" xmlns:xlink="http://www.w3.org/1999/xlink" x="0px" y="0px"
	 width="1650px" height="1650px" viewBox="0 0 1650 1650" enable-background="new 0 0 1650 1650" xml:space="preserve">
<g>
	<path fill="#F2F2F2" d="M825.2507324,1220.5054932c-101.37677-0.3137207-197.6740112-38.9204102-271.1486816-108.7095947
		c-71.9364929-68.3284912-115.1921692-159.9338379-122.1646423-258.4620361h43.5293579
		c14.5130005,181.2976074,167.2551575,323.1311035,349.7669983,323.7669678
		c81.1035767-0.2828369,159.9338379-28.8067627,222.5324707-80.4101563l30.9372559,30.9371338
		C1007.8582153,1187.2785645,918.0720215,1220.2189941,825.2507324,1220.5054932z"/>
	<path fill="#F2F2F2" d="M250.5931091,1026.1826172c-22.8444061-64.8670654-34.4349518-132.8849487-34.4506989-202.2459717
		c0.3027802-82.0040894,16.6228027-161.5319824,48.5034943-236.3546143
		c30.800354-72.286499,74.7644958-137.1863403,130.6716614-192.896698
		c55.9083557-55.7127686,120.9619751-99.4474182,193.3526611-129.9873657
		c74.9376831-31.614212,154.5249634-47.6441803,236.553833-47.6441803l1.0803223,0.0012054
		c67.7980957,0.1174774,134.3595581,11.2920074,197.8374634,33.2135315
		c61.3669434,21.1924133,118.7504883,52.0133667,170.5579834,91.6065369
		c51.2503662,39.16745,95.7873535,85.9444885,132.373291,139.0321045
		c36.1293945,52.4221191,63.6329346,109.7602539,81.795166,170.5004272l-42.3291016,10.3479004
		c-71.8723145-236.0978088-293.3632813-400.875-540.3098755-401.3031616l-0.9967651-0.0005798
		c-310.71521,0-564.4840698,252.8114929-565.692749,563.5593262c0.0266418,63.5366821,10.5756226,125.927063,31.361084,185.5475464
		L250.5931091,1026.1826172z"/>
	<path fill="#F2F2F2" d="M1336.9208984,1064.9898682c35.5310059-75.0582886,53.7064209-155.4381714,54.0322266-238.9949341
		c-0.0145264-33.4127197-3.0096436-66.9793091-8.9053955-99.8682861l42.2769775-10.3339844
		c6.6491699,36.3067627,10.0234375,73.3777466,10.0318604,110.2767944
		c-0.3378906,90.8192749-20.1544189,178.0675659-58.9034424,259.3824463L1336.9208984,1064.9898682z"/>
	<path fill="#F2F2F2" d="M824.1945801,1432.9522705c-117.6931152-0.2041016-231.8388672-34.0303955-330.0981445-97.8226318
		c-94.2468262-61.1877441-169.5720825-146.7924805-218.105835-247.7944336l40.3404236-16.6373291
		c94.2359314,193.4943848,293.0823059,318.4840088,507.9398499,318.8564453l0.9979858,0.0012207
		c196.4411011-0.0042725,375.4769897-99.5213623,479.8754272-266.4688721l38.6000977,20.4978027
		c-53.1711426,86.0354004-127.4367676,158.0645752-215.0549316,208.5161133
		c-91.8572998,52.8920898-196.7753906,80.8529053-303.3903198,80.8529053
		C825.2858276,1432.9534912,824.1945801,1432.9522705,824.1945801,1432.9522705z"/>
	<path fill="#F2F2F2" d="M825.2591553,1540.9509277c-186.9433594-0.3131104-363.7107544-72.232666-497.7396545-202.5107422
		c-65.2050476-63.3809814-117.1069641-137.3879395-154.2621307-219.9666748
		c-37.6777649-83.7390137-58.5831528-172.9105835-62.1650848-265.1396484h43.4421692
		c14.9744568,360.9875488,308.6707764,643.5638428,670.7077637,644.2185059
		c166.4812012-0.3010254,325.927063-61.9968262,449.548645-173.8365479l30.9274902,30.927002
		c-131.7446289,119.8822021-302.1669922,186.0095215-480.4761353,186.3081055H825.2591553z"/>
	<path fill="#F2F2F2" d="M825.2507324,1113.6949463c-59.7404175-0.2531738-116.7775269-18.5073242-165.3101196-52.8453369
		l29.2537231-32.6467285c40.3004761,27.3049316,87.234375,41.8415527,136.0309448,42.0874023
		c134.6538696-0.6782227,244.1609497-110.7133179,244.1609497-245.2872314
		c0-134.5775757-109.5070801-244.6157837-244.1101074-245.2940063
		c-134.6538696,0.6782227-244.1609497,110.7164307-244.1609497,245.2940063
		c0,58.3615112,20.8218384,114.6640625,58.729126,159.0545654l-29.2549438,32.6442871
		c-47.0356445-52.8938599-72.871521-120.74823-72.871521-191.6988525c0-76.914917,29.8980713-149.2758789,84.1846924-203.7539063
		c54.2672729-54.4568481,126.4920654-84.6213379,203.3687744-84.9380493
		c76.8355103,0.3167114,149.0603027,30.4812012,203.3275757,84.9380493
		c54.2866211,54.4780273,84.1846924,126.8389893,84.1846924,203.7539063c0,76.9088135-29.8980713,149.267395-84.1859131,203.7459717
		C974.3340454,1083.2041016,902.1213989,1113.371582,825.2507324,1113.6949463z"/>
	<path fill="#F2F2F2" d="M111.5234528,787.1193848c9.495285-182.1236572,87.2089081-351.9282837,219.1861725-478.638916
		c133.6231689-128.2899628,309.2582092-199.1140442,494.54953-199.4241028
		c82.3425903,0.1380692,163.0658569,14.1490707,239.9135742,41.6436234
		c72.6691895,25.9994202,140.3521729,63.4658356,201.2492676,111.3940277l-28.2387695,33.363739
		c-118.9915771-93.2978973-261.6655273-142.7297211-412.9240723-143.0034332
		c-356.969574,0.6455383-650.4842529,279.031311-670.2947388,634.6650391H111.5234528z"/>
	<path fill="#F2F2F2" d="M1321.6582031,1276.9400635c112.8485107-124.1315918,174.9470215-284.4384155,174.9470215-451.9370117
		c0-182.7008057-75.8859863-359.6268616-208.3658447-486.1915588l28.2774658-33.4091187
		c69.178833,65.5628967,123.7634277,142.7775269,162.2858887,229.5831604
		c40.609375,91.5078125,61.1998291,189.0840454,61.1998291,290.0175171c0,179.3634644-66.5106201,350.625-187.4156494,482.8669434
		L1321.6582031,1276.9400635z"/>
	<path fill="#F2F2F2" d="M1094.7073975,1049.9892578c52.5814209-63.1442261,81.4814453-142.8519897,81.4814453-224.9862061
		c0-95.7565308-37.753418-185.0540161-106.4041748-251.9528198l26.8460693-34.6002808
		c37.7425537,35.8810425,67.5909424,78.0733643,88.7700195,125.4922485
		c22.6845703,50.7894897,34.1866455,104.9780884,34.1866455,161.0608521
		c0,93.8580322-33.3327637,184.5174561-93.9682617,255.8980713L1094.7073975,1049.9892578z"/>
	<path fill="#F2F2F2" d="M432.7258606,787.1193848c9.1658325-96.4068604,53.2874451-185.7037964,124.617157-251.9546509
		c73.0362549-67.8343811,168.1853638-105.3595276,267.9222412-105.6635437
		c78.8132935,0.2404175,154.6859741,23.5492859,219.7469482,67.4607849l-26.7479248,34.4730835
		c-57.359314-38.065918-123.9849854-58.2882385-192.9966431-58.5286255
		c-180.5570068,0.6285706-329.7529907,135.3884277-348.9107056,314.2129517H432.7258606z"/>
	<path fill="#F2F2F2" d="M825.8865356,1327.1064453c-114.2389526-0.0090332-226.3500366-39.8178711-315.6832581-112.0935059
		c-44.4716187-35.9803467-82.1342468-78.8217773-111.9426575-127.3337402
		c-30.8488159-50.2075195-52.4614868-105.2251587-64.2349243-163.5236816
		c-24.1088257-119.3723755-4.161438-242.8947144,56.1651306-348.456543l36.4151611,24.1772461
		c-54.0444336,95.9400024-71.8214417,207.8578491-50.0428467,315.6887207
		c43.0751953,213.2879639,232.20224,368.0950928,449.6903992,368.0950928c0.0133057,0,0.012085,0,0.0253906,0
		c29.9768066-0.0012207,60.190979-2.9926758,89.8007813-8.8909912
		c237.4512939-48.6142578,395.9051514-273.171814,362.6086426-512.4960938l42.5919189-8.6020508
		c18.2324219,125.9706421-11.6813965,252.848999-84.4838867,357.8173828
		c-74.0075684,106.7062988-184.8553467,179.8012695-312.1237183,205.8200684
		c-32.5843506,6.4995117-65.8166504,9.7980957-98.7473755,9.7980957
		C825.9119873,1327.1064453,825.8999023,1327.1064453,825.8865356,1327.1064453z"/>
	<path fill="#F2F2F2" d="M1264.8911133,697.5081787c-56.4255371-195.2917175-236.9692383-331.2790222-440.6795654-331.2790222
		c-29.9683228,0-60.1812134,2.9914856-89.7994995,8.8915405c-107.8781128,22.0862122-204.019165,82.2171936-271.2637329,169.5381165
		l-36.4091187-24.1741943c73.6696472-96.8422852,179.6801758-163.4970398,299.079834-187.9098511
		c32.5770874-6.4977417,65.814209-9.7950439,98.7643433-9.7950439c224.5114746,0,422.3477783,150.2823181,482.9650879,366.1130371
		L1264.8911133,697.5081787z"/>
	<path fill="#F2F2F2" d="M825.2507324,1006.8850708c-48.3375854-0.3191528-93.7321167-19.3709106-127.8206787-53.6477661
		c-34.1152344-34.3054199-52.9035645-79.8464355-52.9035645-128.2342529c0-39.0148926,12.1029053-75.9835205,35.0623779-107.2871094
		l30.6392212,32.0720215c-14.6038208,22.4465942-22.3030396,48.3641968-22.3030396,75.2150879
		c0,75.6256104,61.5837402,137.7240601,137.2796631,138.427124
		c65.3515625-0.6073608,121.1884766-46.6535034,134.4152222-110.0963135h44.1022339
		C990.0509033,940.6845093,914.3053589,1006.2982788,825.2507324,1006.8850708z"/>
	<path fill="#F2F2F2" d="M957.3018188,787.1193848c-16.7414551-58.835083-70.4746704-99.9845581-132.0050659-100.5501709
		c-23.4960327,0.2149658-46.4845581,6.380249-66.8206787,17.8660278l-30.7579956-32.1937256
		c29.102356-18.8531494,62.7064819-28.9061279,97.5653076-29.1338501
		c85.680481,0.560791,159.0800171,60.7625732,176.6826782,144.0117188H957.3018188z"/>
	<path fill="#F2F2F2" d="M223.4734039,1384.7025146C81.7010956,1232.0656738,3.6949911,1033.5112305,3.6949911,824.9957886
		c0-207.0124512,77.0583954-404.5302429,217.0763702-556.7589111l30.9662628,30.9656677
		C119.7264633,443.3523254,47.0929451,629.8760376,47.0929451,824.9957886
		c0,196.5603638,73.5806274,384.1171265,207.2861786,528.6755981L223.4734039,1384.7025146z"/>
	<path fill="#F2F2F2" d="M1602.4438477,787.1193848c-19.9365234-415.5309753-360.4080811-740.826416-777.1858521-741.4749756
		c-195.7749634,0.3046036-382.6456604,73.6490479-526.7875366,206.6497192l-30.9638672-30.9632416
		C419.7243347,80.3185883,617.5945435,2.5492585,825.2579956,2.2464752
		c213.7990112,0.3118668,416.2533569,82.2414398,570.0552368,230.6973877
		c74.8275146,72.2265778,134.5703125,156.6262665,177.5679932,250.8542938
		c43.6722412,95.7073975,68.2231445,197.7272949,73.00354,303.321228H1602.4438477z"/>
	<path fill="#F2F2F2" d="M825.2579956,1647.75354c-206.1882935-0.300415-403.0084534-77.1038818-554.8132324-216.3812256
		l30.898468-31.0231934c143.7240295,131.2911377,329.5797729,203.7036133,523.9001465,204.0064697
		c421.9276123-0.6589355,762.5783691-330.1424561,777.6218262-751.0217285h43.4398193
		c-3.6043701,106.6536865-27.3522949,209.8259277-70.6152344,306.7312012
		c-42.543457,95.2944336-102.1518555,180.7210693-177.171875,253.9074707
		c-75.1060791,73.2706299-162.0788574,130.7752686-258.5031738,170.9171143
		c-99.8181152,41.5545654-205.7220459,62.7052002-314.7713623,62.8638916H825.2579956z"/>
</g>
</svg>
