<svg xmlns="http://www.w3.org/2000/svg" width="753" height="161.9"><style>.st0{fill:#fc2c38}.st1{fill:#fff}</style><path class="st0" d="M562 124h190.8v37.9H562z"/><path class="st1" d="M581.2 138.7c1.4 0 2.6.5 3.6 1.6s1.5 2.4 1.5 3.9-.5 2.8-1.5 3.9-2.2 1.6-3.6 1.6c-.4 0-.8 0-1.2-.1-.4-.1-.7-.2-1-.3-.3-.1-.5-.3-.7-.4-.2-.1-.3-.3-.4-.3l-.2-.2v1.2h-2.2v-15.4h2.2v6l.4-.4c.2-.2.6-.4 1.2-.6.7-.4 1.3-.5 1.9-.5zm-2.4 8c.6.7 1.4 1 2.2 1s1.6-.3 2.2-1c.6-.7 1-1.5 1-2.5s-.3-1.8-1-2.5c-.6-.7-1.4-1-2.2-1s-1.6.3-2.2 1c-.6.7-1 1.5-1 2.5s.3 1.8 1 2.5zM591 150.6l.4-1.1-4.3-10.5h2.3l3.1 7.7 3.1-7.7h2.3l-4.7 11.6c-.5 1.3-1.1 2.2-1.6 2.7s-1.2.8-2 .8c-.3 0-.6 0-.8-.1s-.4-.1-.6-.1h-.2v-2c.4.1.7.2 1.1.2.8 0 1.4-.5 1.9-1.5zM612.1 144.8l5.6-10.7h2.4v15.4h-2.4v-10.2l-4.4 8.4h-2.4l-4.4-8.4v10.2h-2.4v-15.4h2.4l5.6 10.7zM631.8 149.5h-2.2v-1.1l-.1.1c-.1.1-.2.2-.4.3-.2.1-.4.3-.7.4-.2.1-.5.2-.9.3-.4.1-.7.1-1.1.1-1.1 0-2-.3-2.7-.9s-1.1-1.3-1.1-2.1c0-.9.3-1.6.8-2.2.5-.6 1.3-1 2.2-1.1l3.8-.7c0-.6-.2-1-.6-1.4-.4-.4-.9-.6-1.6-.6-.6 0-1.1.1-1.5.3-.5.2-.8.5-.9.7l-.3.4-1.4-1.4c0-.1.1-.1.2-.2l.5-.5c.3-.2.5-.4.8-.6.3-.2.7-.3 1.2-.5.5-.1 1-.2 1.5-.2 1.3 0 2.3.4 3.2 1.1.8.8 1.2 1.7 1.2 2.8v7zm-5-1.8c.9 0 1.6-.3 2.1-.8s.8-1.3.8-2.3v-.2l-3.4.5c-.4.1-.7.2-1 .5-.2.3-.4.6-.4.9 0 .3.2.7.5.9.3.4.8.5 1.4.5zM636.7 134.7c.3.3.4.6.4.9 0 .4-.1.7-.4.9-.3.3-.6.4-.9.4-.4 0-.7-.1-.9-.4-.3-.2-.4-.6-.4-.9 0-.4.1-.7.4-.9.3-.3.6-.4.9-.4.3 0 .6.1.9.4zm.2 4.2v10.5h-2.2v-10.5h2.2zM642.1 134.1v15.4h-2.2v-15.4h2.2zM647.1 147.3c.3.3.4.6.4 1s-.1.7-.4 1c-.3.3-.6.4-1 .4s-.7-.1-1-.4c-.3-.3-.4-.6-.4-1s.1-.7.4-1c.3-.3.6-.4 1-.4.4-.1.7.1 1 .4zM650.5 149.5v-15.4h6.5c1.4 0 2.6.5 3.5 1.4.9.9 1.4 2 1.4 3.4 0 .6-.1 1.2-.3 1.8-.2.5-.5 1-.8 1.3-.3.3-.6.6-.9.8-.3.2-.6.4-.8.5l-.3.1 3.5 6.1h-2.6l-3.3-5.9h-3.5v5.9h-2.4zm8.3-8.9c.5-.5.7-1.1.7-1.8s-.2-1.3-.7-1.8c-.5-.5-1.1-.7-1.8-.7h-4.1v5h4.1c.7 0 1.3-.2 1.8-.7zM672.2 149.5v-1.1l-.1.1c-.1.1-.2.2-.4.3-.2.1-.4.3-.7.4-.2.1-.5.2-.9.3-.4.1-.7.1-1.1.1-1.3 0-2.3-.4-3.1-1.2-.8-.8-1.2-2-1.2-3.4v-6.1h2.2v6.1c0 .8.2 1.4.7 1.9.5.5 1.1.7 1.8.7.8 0 1.5-.3 2-.8s.7-1.3.7-2.3v-5.7h2.2v10.5h-2.1zM690.5 141.3h5.4v5.5c-.1.1-.1.2-.3.3-.1.1-.4.4-.8.7-.4.3-.9.6-1.3.9-.5.2-1.1.5-1.8.7-.8.2-1.5.3-2.4.3-2.3 0-4.2-.8-5.8-2.3-1.6-1.5-2.3-3.4-2.3-5.6 0-2.2.8-4.1 2.3-5.6 1.6-1.5 3.5-2.3 5.8-2.3.8 0 1.5.1 2.2.3.7.2 1.3.5 1.8.7.5.3.9.6 1.2.9.3.3.6.5.8.7l.2.3-1.5 1.5c0-.1-.1-.1-.2-.2l-.6-.6c-.3-.3-.6-.5-.9-.7-.3-.2-.8-.4-1.3-.5-.5-.2-1.1-.3-1.7-.3-1.6 0-2.9.6-4.1 1.7-1.1 1.1-1.7 2.5-1.7 4 0 1.6.6 2.9 1.7 4.1 1.1 1.1 2.5 1.7 4.1 1.7.5 0 1-.1 1.5-.2s.9-.2 1.2-.4c.3-.2.6-.3.8-.5s.4-.3.5-.4l.2-.2v-2.4h-3v-2.1zM704.6 140.8c-.3-.1-.6-.1-1-.1-.8 0-1.5.3-2 .8s-.7 1.3-.7 2.3v5.7h-2.2V139h2.2v1.1l.1-.1c.1-.1.2-.2.4-.3.2-.1.4-.3.7-.4.2-.1.5-.2.9-.3.4-.1.7-.1 1.1-.1h.5v1.9zM707 148c-1.1-1.1-1.6-2.4-1.6-3.9s.5-2.8 1.6-3.9 2.4-1.6 3.9-1.6 2.8.5 3.9 1.6 1.6 2.4 1.6 3.9-.5 2.8-1.6 3.9-2.4 1.6-3.9 1.6c-1.5.1-2.8-.5-3.9-1.6zm6.2-1.3c.6-.7 1-1.5 1-2.5s-.3-1.8-1-2.5c-.6-.7-1.4-1-2.3-1-.9 0-1.7.3-2.3 1-.7.7-1 1.5-1 2.5s.3 1.8 1 2.5 1.4 1 2.3 1c.9 0 1.6-.3 2.3-1zM725.9 149.5v-1.1l-.1.1c-.1.1-.2.2-.4.3-.2.1-.4.3-.7.4-.2.1-.5.2-.9.3-.4.1-.7.1-1.1.1-1.3 0-2.3-.4-3.1-1.2-.8-.8-1.2-2-1.2-3.4v-6.1h2.2v6.1c0 .8.2 1.4.7 1.9.5.5 1.1.7 1.8.7.8 0 1.5-.3 2-.8s.7-1.3.7-2.3v-5.7h2.2v10.5h-2.1zM736.5 149.7c-.4 0-.8 0-1.1-.1-.4-.1-.7-.2-1-.3-.3-.1-.5-.3-.7-.4-.2-.1-.4-.3-.4-.3l-.1-.2v5.8H731V139h2.2v1.2l.4-.4c.2-.2.6-.4 1.2-.6.6-.3 1.2-.4 1.8-.4 1.4 0 2.6.5 3.6 1.6s1.5 2.4 1.5 3.9-.5 2.8-1.5 3.9c-1.1.9-2.3 1.5-3.7 1.5zm2-8c-.6-.7-1.4-1-2.2-1s-1.6.3-2.2 1c-.6.7-1 1.5-1 2.5s.3 1.8 1 2.5c.6.7 1.4 1 2.2 1s1.6-.3 2.2-1c.6-.7 1-1.5 1-2.5s-.4-1.8-1-2.5z"/><g><path d="M654.8 33.8V24c0-13.2-10.8-24-24-24h-24v100.8h14.9v-43h7.4l14.1 43H659L643.7 54c6.9-4.4 11.1-12.1 11.1-20.2zM639.9 24v9.8c0 5-4.1 9.1-9.1 9.1h-9.1v-28h9.1c5 0 9.1 4.1 9.1 9.1zM687.4 0c-6.7-.4-13 2-17.8 6.5-4.8 4.5-7.5 10.9-7.5 17.4v52.8c0 6.6 2.7 12.9 7.5 17.4 4.5 4.3 10.3 6.6 16.5 6.6h1.3c12.7-.7 22.7-11.5 22.7-24.7V65.2h-14.9v11.6c0 2.8-1.2 5.3-3.4 7.1-2.2 1.7-5 2.4-7.7 1.8-4.1-.9-7-4.8-7-9.2V24c0-2.8 1.2-5.3 3.4-7.1 2.2-1.7 5-2.4 7.7-1.8 4.1.9 7 4.8 7 9.2V35h14.9V24.8c0-13.2-10-24.1-22.7-24.8zM753 14.9V0h-35.4v100.8H753V85.9h-20.5V57.7H753V42.8h-20.5V14.9zM562 100.8h35.4V85.9h-20.5V57.7h20.5V42.8h-20.5V14.9h20.5V0H562z"/></g><g><path d="M239.7 54c6.9-4.4 11.1-12.1 11.1-20.2V24c0-13.2-10.8-24-24-24h-24v100.8h14.9v-43h7.4l14.1 43H255L239.7 54zm-3.9-30v9.8c0 5-4.1 9.1-9.1 9.1h-9.1v-28h9.1c5.1 0 9.1 4.1 9.1 9.1zM76 76.6c0 5.1-4.1 9.3-9.1 9.3s-9.1-4.2-9.1-9.3V0H43v76.6c0 13.3 10.8 24.2 24 24.2s24-10.9 24-24.2V0H76v76.6zM178.4 76.6c0 5.1-4.1 9.3-9.1 9.3s-9.1-4.2-9.1-9.3V0h-14.9v76.6c0 13.3 10.8 24.2 24 24.2s24-10.9 24-24.2V0h-14.9v76.6zM0 100.8h14.9V57.7h20.5V42.8H14.9V14.9h20.5V0H0zM97.8 0l.1 14.9h12.8v85.9h14.9V14.9h12.8V0z"/></g><g><path class="st0" d="M326.9 0c-6.7-.4-13 2-17.8 6.5-4.8 4.5-7.5 10.9-7.5 17.4v52.8c0 6.6 2.7 12.9 7.5 17.4 4.5 4.3 10.3 6.6 16.5 6.6h1.3c12.7-.7 22.7-11.5 22.7-24.7V65.2h-14.9v11.6c0 2.8-1.2 5.3-3.4 7.1-2.2 1.7-5 2.4-7.7 1.8-4.1-.9-7-4.8-7-9.2V24c0-2.8 1.2-5.3 3.4-7.1 2.2-1.7 5-2.4 7.7-1.8 4.1.9 7 4.8 7 9.2V35h14.9V24.8c-.1-13.2-10-24.1-22.7-24.8zM381.3 0c-13.3 0-24.2 10.8-24.2 24v52.6c0 13.3 10.9 24.2 24.2 24.2 13.2 0 24-10.9 24-24.2V24c0-13.2-10.7-24-24-24zM372 24c0-5 4.2-9.1 9.3-9.1 5 0 9.1 4.1 9.1 9.1v52.6c0 5.1-4.1 9.3-9.1 9.3-5.2 0-9.3-4.1-9.3-9.3V24zM258.7 100.8h35.4V85.9h-20.5V57.7h20.5V42.8h-20.5V14.9h20.5V0h-35.4zM538 0l-18 61.7L502.2.8l-.3-.8h-14.6v100.8h14.9V48.6l11.1 36.8.3.7h12.8l11.4-37.5v52.2h14.9V0zM445.6 61.7L427.8.8l-.3-.8h-14.6v100.8h14.9V48.6l11.1 36.8.3.7H452l11.4-37.5v52.2h14.9V0h-14.7z"/></g></svg>