<svg xmlns="http://www.w3.org/2000/svg" width="150" height="147.8"><path d="M75 147.8c-19.9 0-38.6-7.7-52.7-21.6C8.3 112.3.3 93.7 0 73.9c.3-19.8 8.3-38.4 22.3-52.3C36.4 7.7 55.2 0 75 0c19.9 0 38.6 7.7 52.7 21.6 14.1 13.9 22 32.5 22.3 52.3-.3 19.8-8.3 38.4-22.3 52.3-14.1 14-32.8 21.6-52.7 21.6z" fill="#d2d3d4"/><path d="M75.2 25.1H75c-26.9 0-48.8 21.9-48.8 48.8s21.9 48.8 48.8 48.8c9.9 0 19.4-2.9 27.5-8.5l.1-.1-6.6-7.6-.1.1c-6.3 4-13.5 6.2-20.9 6.2-21.4 0-38.8-17.4-38.8-38.8S53.6 35.1 75 35.1s38.8 17.4 38.8 38.8c0 2.8-.3 5.6-.9 8.3-1.2 4.7-4.4 6.4-6.9 6.4h-.5c-2.7-.2-5.8-2.1-5.8-6.8v-8c0-13.6-11.1-24.7-24.7-24.7S50.3 60.2 50.3 73.8 61.4 98.5 75 98.5c6.6 0 12.8-2.6 17.5-7.3 2.7 4.2 7.2 6.9 12.2 7.3.4 0 .9.1 1.3.1 3.6 0 7.1-1.2 9.9-3.3 2.9-2.2 5.1-5.4 6.3-9.3.2-.6.5-2.1.5-2.1v-.1c.7-3.1 1-6.2 1-10 .1-26.7-21.7-48.6-48.5-48.7zM75 88.6c-8.1 0-14.7-6.6-14.7-14.7S66.9 59.2 75 59.2s14.7 6.6 14.7 14.7S83.1 88.6 75 88.6z" fill="#fff"/></svg>