<svg xmlns="http://www.w3.org/2000/svg" xmlns:xlink="http://www.w3.org/1999/xlink" width="1735" height="505.4"><style></style><defs><path id="SVGID_1_" d="M0 0h1735v505.4H0z"/></defs><clipPath id="SVGID_2_"><use xlink:href="#SVGID_1_" overflow="visible"/></clipPath><path d="M1059.8 22.8c0-12.6-10.2-22.8-22.8-22.8-12.6 0-22.8 10.2-22.8 22.8v8.9c0 12.6 10.2 22.8 22.8 22.8 12.6 0 22.8-10.2 22.8-22.8v-8.9zm-200.4 91.6c49.6 0 77.9 34.5 77.9 77.1 0 42.5-27.4 77.1-77.9 77.1-43 0-77.9-34.5-77.9-77.1 0-42.6 34.9-77.1 77.9-77.1m-674 12.5c35.5 0 64.3 28.6 64.3 63.8s-28.8 63.8-64.3 63.8-64.3-28.6-64.3-63.8 28.8-63.8 64.3-63.8m277.2 160.8c0 12.6-10.2 22.8-22.8 22.8-12.6 0-22.8-10.2-22.8-22.8V95.1c0-12.6 10.2-22.8 22.8-22.8 9.8 0 18.2 6.2 21.4 14.9 12.9-11.6 30.1-18.7 49-18.7 22.7 0 43 10.3 56.4 26.4 14.3-16.2 35.4-26.4 58.8-26.4 43.1 0 78.1 34.6 78.1 77.2v142c0 12.6-10.2 22.8-22.8 22.8-12.6 0-22.8-10.2-22.8-22.8V147.2v-1.3c0-17.4-14.3-31.5-31.8-31.5-1.3 0-2.5.1-3.7.2-13.3 1.3-22.4 8.4-28.5 16-7 8.8-10.8 19.7-10.8 30.9v126.1c0 12.6-10.2 22.8-22.8 22.8-12.6 0-22.8-10.2-22.8-22.8V147.2v-1.3c0-17.4-14.3-31.5-31.8-31.5-1.3 0-2.5.1-3.7.2-13.3 1.3-22.4 8.4-28.5 16-7 8.8-10.8 19.7-10.8 30.9v126.2zm828.2-8.9c0-12.6-10.2-22.8-22.8-22.8-12.6 0-22.8 10.2-22.8 22.8v8.9c0 12.6 10.2 22.8 22.8 22.8 12.6 0 22.8-10.2 22.8-22.8v-8.9zm-231-183.7c0-12.6-10.2-22.8-22.8-22.8-12.6 0-22.8 10.2-22.8 22.8v192.6c0 12.6 10.2 22.8 22.8 22.8 12.6 0 22.8-10.2 22.8-22.8V95.1zm33.7 116.9V22.8c0-12.6 10.2-22.8 22.8-22.8 12.6 0 22.8 10.2 22.8 22.8V215c1.4 27.7 24.7 49.7 53 49.7 12.6 0 22.9 10.3 22.9 22.9 0 12.4-9.9 22.5-22.2 22.9-.9.1-2.6.1-3.5.1-52.9 0-95.8-42.5-95.8-94.7V212zm273.5-20.7v96.6c0 12.6-10.2 22.8-22.8 22.8-12.6 0-22.8-10.2-22.8-22.8v-97.2-.5c.7-65.1 54.4-117.8 120.4-117.8 12.6 0 22.9 10.3 22.9 22.9 0 12.6-10.3 22.9-22.9 22.9-41.1-.1-74.5 32.6-74.8 73.1zm-433.9 98.5c-21.7 15.5-49.2 24.7-76.4 24.7-66.7 0-120.9-55.1-120.9-123s54.2-123 120.9-123c27.2 0 54.8 9.2 76.4 24.6 1-11.7 10.8-20.9 22.7-20.9 12.6 0 22.8 10.2 22.8 22.8v192.6c0 12.6-10.2 22.8-22.8 22.8-11.8.1-21.6-9-22.7-20.6m604.1-93.8c.3 40.6 33.7 73.4 74.8 73.4 41.1 0 74.5-32.8 74.8-73.4V95.1c0-12.6 10.2-22.8 22.8-22.8 12.6 0 22.8 10.2 22.8 22.8V196.4c-.5 65.3-54.3 118.1-120.4 118.1-66.2 0-119.9-52.8-120.4-118.1V95.1c0-12.6 10.2-22.8 22.8-22.8 12.6 0 22.8 10.2 22.8 22.8V196zM276.7 350.1l.1.1c-27.2 15.8-58.8 24.9-92.5 24.9C82.6 375.1 0 292.5 0 190.8 0 89.1 82.6 6.5 184.3 6.5c101.7 0 184.3 82.6 184.3 184.3 0 17.2-2.3 33.8-6.7 49.5-2 6.9-12.1 34.2-32.1 45.3-9.2 6.2-20.3 9.8-32.2 9.8-19.4 0-36.7-9.6-47.2-24.3-18.1 14.9-41.3 23.8-66.6 23.8-57.9 0-104.8-46.6-104.8-104.1 0-57.5 46.9-104.1 104.7-104.1 23.3 0 44.8 7.6 62.2 20.4 3.8-5.9 10.4-9.8 17.9-9.8 11.8 0 21.3 9.6 21.3 21.3v118c0 8.3 6.8 15.1 15.1 15.1h1c1.6 0 3.2-.4 4.7-1.1 3.4-1.4 6.1-3.9 7.7-7.2 7.6-11.1 12.3-32.4 12.2-56.8l-.1-.2C323.5 110.2 261 49.2 184.3 49.2c-78.2 0-141.6 63.5-141.6 141.6 0 78.2 63.5 141.6 141.6 141.6 25.9 0 50.1-6.9 71-19.1l.1.2c2.7-1.2 5.7-1.9 8.8-1.9 11.7 0 21.3 9.5 21.3 21.3-.1 7-3.5 13.3-8.8 17.2m1178.8 41.5c-5.3 0-10.7 1.6-15.1 4.5-6.3 4.1-10.8 10.7-12.2 18.1-1.1 5.8-.3 11.9 2.2 17.2 3.7 7.8 11.2 13.8 19.8 15.4 6.7 1.3 13.8.1 19.7-3.4 7.4-4.4 12.5-12.3 13.4-21 .9-8.1-2-16.6-7.8-22.5-5-5.1-11.9-8.2-19.2-8.3h-.8m-180.4 0c-5.5 0-11 1.7-15.6 4.8-6.8 4.6-11.4 12.2-12.1 20.5-.6 6.6 1.2 13.4 5 18.8 4.1 5.7 10.4 9.9 17.4 11.2 5.4 1 11 .5 16.1-1.6 6.3-2.6 11.5-7.6 14.4-13.7 3.1-6.5 3.6-14.2 1.3-21.1-2.5-7.2-8.1-13.3-15-16.5-3.5-1.6-7.4-2.4-11.3-2.4h-.2m410 0c-6.7 0-13.4 2.6-18.5 7.1-5.8 5.2-9.3 12.8-9.3 20.9 0 6.3 2.2 12.6 6.3 17.6 4.1 5 9.9 8.5 16.2 9.7 5.3 1 11 .5 16-1.6 7-2.9 12.7-8.7 15.4-15.9 2.4-6.3 2.4-13.4 0-19.8-3-7.9-9.7-14.2-17.8-16.7-2.6-.8-5.4-1.2-8.2-1.3h-.1m-293.9-21.9c3.7 0 7.3 2 9.2 5.1 2.2 3.5 2.3 8.1 0 11.7-1.9 3.1-5.5 5.1-9.2 5.1-3.2 0-6.3.6-9.3 1.7-7 2.7-12.6 8.6-14.9 15.7-.8 2.4-1.2 4.9-1.2 7.4v40.4c0 3.5-1.8 7-4.8 9-2.4 1.6-5.4 2.3-8.3 1.7-3.4-.7-6.4-3.1-7.9-6.3-.6-1.4-.9-2.9-.9-4.4v-41.6c0-.4 0-.7.1-1.1.4-8.4 3.2-16.7 7.9-23.7 5.5-8.2 13.7-14.5 23-17.9 5.1-1.9 10.6-2.8 16.1-2.9 0 .1.1.1.2.1m217.3 1.8c3.3 0 6.6 1.6 8.6 4.3 1.5 1.9 2.3 4.3 2.3 6.6v38.5c.1 6.7-1.2 13.5-4 19.7-3.8 8.6-10.1 16.1-18.1 21.2-11.4 7.3-25.9 9.5-39 5.7-9.6-2.8-18.2-8.6-24.4-16.5-6-7.7-9.6-17.2-10.1-27v-.5-.8c-.1-13.4 0-26.8 0-40.2 0-3.2 1.5-6.4 4-8.4 3.1-2.5 7.7-3.2 11.4-1.5 3.6 1.6 6.2 5.3 6.4 9.4v39.1c-.1 4.7 1.1 9.4 3.5 13.4 3.7 6.4 10.2 11 17.4 12.5 7.1 1.4 14.7-.3 20.6-4.7 3.6-2.7 6.5-6.4 8.3-10.6 1.3-3.1 2-6.5 2-9.9v-.3-38.9c0-3.6 1.9-7.1 4.9-9.1 1.8-1.2 3.9-1.8 5.9-1.8.2-.2.2-.2.3-.2m-152.9-1.8c6.9 0 13.8 1.5 20.1 4.3 10.2 4.5 18.7 12.6 23.9 22.4 4.8 9.1 6.6 19.7 5.2 29.9-1.1 8-4.2 15.8-9 22.3-6.3 8.8-15.5 15.4-26 18.5-12.1 3.7-25.6 2.5-37-3.3-11-5.6-19.9-15.5-24.2-27.2-3.9-10.6-4.1-22.6-.4-33.4 3.5-10.1 10.3-19.1 19.2-25.1 7.3-4.9 15.9-7.9 24.6-8.5 1.3.1 2.5.1 3.6.1m-132.6 87c-.4 9.2-3.5 18.4-8.8 25.9-6.9 9.7-17.5 16.7-29.2 19.3-3.9.9-7.9 1.2-11.9 1.1h-3.5c-7.8-.2-15.7-1.4-23.1-3.8-2.7-.9-5.3-1.9-7.8-3.3-.5-.2-.9-.5-1.3-.8h.1l-.1-.1c-2.4-1.8-4-4.5-4.4-7.4-.5-3.7 1.1-7.5 3.9-9.9 3-2.5 7.4-3.2 11.1-1.6 0 0 .2.1.3.1 4.3 1.8 8.7 3.4 13.3 4.2 4.2.7 8.5.9 12.8 1 1 0 2.1-.1 3.1-.2 6.1-.7 11.8-3.5 16.1-7.8 2.8-2.8 4.9-6.3 6.2-10.1.1-.2.1-.3.2-.5-9.4 5.4-20.5 7.6-31.2 6.2-9.3-1.2-18.3-5.1-25.5-11.1-7.7-6.4-13.4-15.2-16.1-24.8-2.9-10.4-2.3-21.7 1.6-31.7 3.6-9.2 10.1-17.2 18.2-22.8 5.8-4 12.4-6.7 19.3-7.9 11.6-2.1 24 .1 34.3 6.2.5.3 1.1.7 1.6 1v-.1c1.6-3.1 4.7-5.5 8.3-6 3.4-.5 7 .7 9.4 3.2 1.9 2 3.1 4.8 3.1 7.6v73.3c.1.1 0 .4 0 .8 0-.1 0-.1 0 0m362.3-87c11 0 22 3.8 30.7 10.7 8 6.3 14.1 15.1 17 25.2 2.5 8.6 2.6 17.9.3 26.6-3 11.6-10.4 21.9-20.3 28.6-8.2 5.6-18 8.6-28 8.6-9.1 0-18.2-2.6-26-7.4-.2-.1-.4-.2-.6-.4v33c0 3-1.3 5.9-3.5 8-3.1 2.9-8 3.8-12 1.9-2.6-1.2-4.8-3.5-5.7-6.3-.4-1.2-.6-2.4-.6-3.6V382.4c0-3.4 1.7-6.8 4.6-8.9 3.2-2.3 7.7-2.7 11.3-.8 2.2 1.1 4 3 5 5.3 0 0 .1-.1.2-.1 7.5-5 16.5-7.9 25.6-8.2h2" clip-path="url(#SVGID_2_)" fill-rule="evenodd" clip-rule="evenodd" fill="#cecfd0"/></svg>