<svg xmlns="http://www.w3.org/2000/svg" xmlns:xlink="http://www.w3.org/1999/xlink" width="319.1" height="319.1"><style></style><defs><path id="SVGID_1_" d="M0 0h319.1v319.1H0z"/></defs><clipPath id="SVGID_2_"><use xlink:href="#SVGID_1_" overflow="visible"/></clipPath><path d="M160.1 0h-.5C71.6 0 0 71.6 0 159.5 0 247.5 71.6 319 159.5 319c32.2 0 63.3-9.6 89.9-27.8l.5-.3-21.5-25-.4.2c-20.4 13.2-44.1 20.1-68.5 20.1-69.9 0-126.8-56.9-126.8-126.8S89.6 32.7 159.5 32.7s126.8 56.9 126.8 126.8c0 9.1-1 18.2-3 27.3-4 16.5-15.5 21.5-24.2 20.8-8.7-.7-18.9-6.9-19-22.1v-26c0-44.5-36.2-80.7-80.7-80.7S78.8 115 78.8 159.5s36.2 80.7 80.7 80.7c21.6 0 41.9-8.5 57.2-23.8 8.9 13.8 23.4 22.5 39.9 23.8 1.4.1 2.9.2 4.3.2 11.6 0 23.1-3.9 32.4-10.9 9.6-7.3 16.7-17.8 20.6-30.4.6-2 1.8-6.7 1.8-6.7v-.2c2.3-10.1 3.4-20.2 3.4-32.7C319.1 71.7 247.8.3 160.1 0m-.6 207.5c-26.5 0-48-21.5-48-48s21.5-48 48-48 48 21.5 48 48-21.5 48-48 48" clip-path="url(#SVGID_2_)" fill="#fff"/></svg>