<svg xmlns="http://www.w3.org/2000/svg" xmlns:xlink="http://www.w3.org/1999/xlink" width="36.7" height="61.2"><style>.st0{clip-path:url(#SVGID_2_);fill:#fff}</style><defs><path id="SVGID_1_" d="M0 0h36.7v61.2H0z"/></defs><clipPath id="SVGID_2_"><use xlink:href="#SVGID_1_" overflow="visible"/></clipPath><path class="st0" d="M32 30.9c-.8.2-1.6.6-2.2 1.2-6.8 4.6-16.2 4.5-23-.2-.3-.2-.7-.4-1.1-.6-1.9-.9-3.7-.5-4.8 1.1-1.3 1.8-1.1 3.6.5 5.1.4.4.9.7 1.3 1.1 3.7 2.9 7.9 4 12.7 4.5-.3.4-.5.6-.8.8-3.5 3.5-7 7-10.4 10.5-.7.7-1.2 1.5-1.3 2.6-.1 1.6.9 3.1 2.4 3.8 1.4.7 2.9.5 4.1-.7 2.7-2.7 5.4-5.4 8.1-8.2.7-.7 1-.8 1.8 0 2.6 2.7 5.3 5.3 8 8 .7.7 1.5 1.2 2.5 1.3 1.6.1 3.2-.9 3.9-2.4.7-1.4.4-2.9-.8-4.1-3.5-3.5-7-7.1-10.6-10.6-.2-.2-.4-.5-.8-.9 2.6-.3 5.2-.8 7.6-1.7 2.5-1 4.8-2.4 6.7-4.3 1.2-1.3 1.2-2.9.2-4.5-.9-1.6-2.4-2.2-4-1.8"/><path class="st0" d="M18.2 31c8.5 0 15.5-6.8 15.6-15.3C33.9 7 27 0 18.4 0 9.9 0 2.9 6.9 2.9 15.4 2.8 23.9 9.8 30.9 18.2 31m.2-23.1c4.2 0 7.5 3.4 7.6 7.6 0 4.2-3.3 7.6-7.5 7.6s-7.6-3.3-7.6-7.5c-.1-4.3 3.2-7.7 7.5-7.7"/></svg>