<svg xmlns="http://www.w3.org/2000/svg" width="575.1" height="577.4"><style>.st1{fill:#e1e1e1}</style><path d="M287.5 577.4c-59.7-.3-116.8-18.5-165.3-52.8l29.3-32.6c40.3 27.3 87.2 41.8 136 42.1 134.7-.7 244.2-110.7 244.2-245.3 0-134.6-109.5-244.6-244.1-245.3-134.7.6-244.2 110.6-244.2 245.2 0 58.4 20.8 114.7 58.7 159.1l-29.3 32.6C25.8 427.5 0 359.6 0 288.7c0-76.9 29.9-149.3 84.2-203.8C138.5 30.5 210.7.3 287.6 0c76.8.3 149.1 30.5 203.3 84.9 54.3 54.5 84.2 126.8 84.2 203.8 0 76.9-29.9 149.3-84.2 203.7-54.3 54.5-126.5 84.7-203.4 85z" fill="#fc2c38"/><path class="st1" d="M287.5 470.6c-48.3-.3-93.7-19.4-127.8-53.6-34.1-34.3-52.9-79.8-52.9-128.2 0-39 12.1-76 35.1-107.3l30.6 32.1c-14.6 22.4-22.3 48.4-22.3 75.2 0 75.6 61.6 137.7 137.3 138.4 65.4-.6 121.2-46.7 134.4-110.1H466c-13.7 87.3-89.4 152.9-178.5 153.5zM419.6 250.8c-16.7-58.8-70.5-100-132-100.6-23.5.2-46.5 6.4-66.8 17.9L190 135.9c29.1-18.9 62.7-28.9 97.6-29.1 85.7.6 159.1 60.8 176.7 144h-44.7z"/></svg>