<svg xmlns="http://www.w3.org/2000/svg" width="787.7" height="791"><style>.st0{fill:#f1f2f2}</style><path class="st0" d="M393.3 791c-101.4-.3-197.7-38.9-271.1-108.7C50.2 614 7 522.4 0 423.8h43.5C58 605.1 210.8 747 393.3 747.6c81.1-.3 159.9-28.8 222.5-80.4l30.9 30.9c-70.8 59.7-160.6 92.6-253.4 92.9z"/><path class="st0" d="M393.3 684.2c-59.7-.3-116.8-18.5-165.3-52.8l29.3-32.6c40.3 27.3 87.2 41.8 136 42.1 134.7-.7 244.2-110.7 244.2-245.3C637.5 261 528 151 393.4 150.3 258.7 151 149.2 261 149.2 395.6c0 58.4 20.8 114.7 58.7 159.1l-29.3 32.6c-47-52.9-72.9-120.7-72.9-191.7 0-76.9 29.9-149.3 84.2-203.8 54.3-54.5 126.5-84.6 203.4-84.9 76.8.3 149.1 30.5 203.3 84.9 54.3 54.5 84.2 126.8 84.2 203.8 0 76.9-29.9 149.3-84.2 203.7-54.2 54.4-126.4 84.6-203.3 84.9z"/><path class="st0" d="M662.8 620.5c52.6-63.1 81.5-142.9 81.5-225 0-95.8-37.8-185.1-106.4-252l26.8-34.6c37.7 35.9 67.6 78.1 88.8 125.5 22.7 50.8 34.2 105 34.2 161.1 0 93.9-33.3 184.5-94 255.9l-30.9-30.9zM.8 357.6c9.2-96.4 53.3-185.7 124.6-252C198.4 37.8 293.6.3 393.3 0 472.1.2 548 23.5 613.1 67.5L586.4 102c-57.4-38.1-124-58.3-193-58.5-180.6.5-329.8 135.3-349 314.1H.8zM393.3 577.4c-48.3-.3-93.7-19.4-127.8-53.6-34.1-34.3-52.9-79.8-52.9-128.2 0-39 12.1-76 35.1-107.3l30.6 32.1c-14.6 22.4-22.3 48.4-22.3 75.2 0 75.6 61.6 137.7 137.3 138.4 65.4-.6 121.2-46.7 134.4-110.1h44.1c-13.7 87.3-89.4 152.9-178.5 153.5zM525.4 357.6c-16.7-58.8-70.5-100-132-100.6-23.5.2-46.5 6.4-66.8 17.9l-30.8-32.2c29.1-18.9 62.7-28.9 97.6-29.1 85.7.6 159.1 60.8 176.7 144h-44.7z"/></svg>