<?xml version="1.0" encoding="utf-8"?>
<!-- Generator: Adobe Illustrator 22.0.1, SVG Export Plug-In . SVG Version: 6.00 Build 0)  -->
<svg version="1.1" id="Layer_1" xmlns="http://www.w3.org/2000/svg" xmlns:xlink="http://www.w3.org/1999/xlink" x="0px" y="0px"
	 width="1539px" height="1539px" viewBox="0 0 1539 1539" enable-background="new 0 0 1539 1539" xml:space="preserve">
<g>
	<path fill="#F2F2F2" d="M716.052063,1111.6004639c-101.37677-0.3135986-197.6740112-38.9202881-271.1486511-108.7095337
		C372.9668884,934.562439,329.7112427,842.9570923,322.738739,744.428894h43.5293884
		c14.5130005,181.2976685,167.255127,323.1311646,349.7669678,323.7670288
		c81.1035767-0.2828369,159.9338379-28.8068848,222.5325317-80.4102173l30.9371948,30.9371948
		C898.6595459,1078.3736572,808.8733521,1111.3140869,716.052063,1111.6004639z"/>
	<path fill="#F2F2F2" d="M141.3944702,917.27771c-22.8444138-64.8671265-34.434967-132.8850098-34.4507141-202.2460327
		c0.3027878-82.0040894,16.622818-161.5319824,48.5034943-236.3545837
		c30.8003387-72.2865295,74.7645111-137.1863708,130.6716461-192.896698
		c55.9083862-55.7127686,120.9620056-99.4474182,193.3526917-129.9873657
		c74.9377136-31.6142273,154.5249329-47.6441956,236.5538025-47.6441956l1.0803223,0.0012131
		c67.7980957,0.117485,134.3596191,11.2920074,197.8375244,33.2135239
		c61.3669434,21.1924286,118.7504883,52.0133667,170.5579834,91.6065369
		c51.2502441,39.1674652,95.7873535,85.9444733,132.373291,139.0321198
		c36.1292725,52.4221191,63.6329346,109.7602234,81.795166,170.5003967l-42.3292236,10.3479004
		c-71.8723145-236.0978088-293.3632202-400.875-540.3098145-401.3031311l-0.9967651-0.0005951
		c-310.7151794,0-564.4840698,252.8114777-565.692749,563.5593262
		c0.0266418,63.5366821,10.5756226,125.927063,31.3610992,185.5475464L141.3944702,917.27771z"/>
	<path fill="#F2F2F2" d="M714.9959717,1324.0473633c-117.6931763-0.2041016-231.8388977-34.0305176-330.0982056-97.8227539
		c-94.2467957-61.1876221-169.572052-146.7924805-218.1058197-247.7943115l40.3404388-16.6373901
		c94.2359009,193.4944458,293.0822754,318.4840698,507.9398804,318.8565063l0.9979858,0.0012207
		c196.44104-0.0042725,375.4768677-99.5213623,479.8754272-266.4688721l38.6000977,20.4978027
		c-53.1712646,86.0352783-127.4367676,158.0644531-215.0550537,208.5161133
		c-91.8572388,52.8919678-196.7753296,80.8529053-303.3901978,80.8529053
		C716.0871582,1324.048584,714.9959717,1324.0473633,714.9959717,1324.0473633z"/>
	<path fill="#F2F2F2" d="M716.0605469,1432.0458984c-186.9433594-0.3129883-363.7107849-72.2325439-497.7396851-202.5106201
		c-65.2050323-63.3811035-117.1069641-137.3880615-154.2621155-219.9667358
		C26.3809509,925.8295288,5.4755683,836.657959,1.8936398,744.428894h43.4421616
		c14.9744606,360.9876099,308.6707764,643.5639038,670.7077637,644.2184448
		c166.4812622-0.3009033,325.927002-61.9967041,449.5487061-173.8364258l30.9274902,30.9268799
		c-131.744751,119.8823242-302.1669922,186.0096436-480.4761963,186.3081055H716.0605469z"/>
	<path fill="#F2F2F2" d="M716.052063,1004.789978c-59.7404175-0.2531128-116.7775269-18.5073242-165.3101196-52.8453979
		l29.2537842-32.6466675c40.3004761,27.3049927,87.234314,41.8416138,136.0308838,42.0874634
		C850.680481,960.7071533,960.187561,850.6719971,960.187561,716.0980835
		c0-134.5775757-109.5070801-244.6157532-244.1100464-245.2939758
		c-134.6538696,0.6782227-244.1609802,110.7164001-244.1609802,245.2939758
		c0,58.3615112,20.8218079,114.6641235,58.7290955,159.0545654L501.390686,907.796936
		c-47.0355835-52.8938599-72.8714905-120.74823-72.8714905-191.6988525c0-76.914856,29.8980408-149.2758789,84.1847229-203.7539063
		c54.2672729-54.4568176,126.4920044-84.6213074,203.3687134-84.9380188
		c76.8355713,0.3167114,149.0603027,30.4812012,203.3275757,84.9380188
		c54.2866821,54.4780273,84.1846924,126.8390503,84.1846924,203.7539063c0,76.9088135-29.8980103,149.267395-84.1859131,203.7460327
		C865.135376,974.2991333,792.9227295,1004.4666138,716.052063,1004.789978z"/>
	<path fill="#F2F2F2" d="M2.3248034,678.2144165c9.4952898-182.1236572,87.2089005-351.9282532,219.1861725-478.638916
		C355.1341553,71.285553,530.769165,0.4614739,716.0605469,0.1514237
		c82.3425293,0.1380693,163.0658569,14.1490717,239.9135132,41.6436272
		c72.6692505,25.9994125,140.3522339,63.4658356,201.2492065,111.3940353l-28.2387695,33.3637085
		C1009.993042,93.254921,867.3190308,43.8230934,716.0605469,43.5493774
		C359.0909424,44.194912,65.5762711,322.5806885,45.7657547,678.2144165H2.3248034z"/>
	<path fill="#F2F2F2" d="M985.508728,941.0843506c52.5813599-63.1442871,81.4815063-142.8519897,81.4815063-224.9862671
		c0-95.7564697-37.75354-185.0540161-106.4041748-251.9527893l26.8459473-34.6002808
		c37.7425537,35.8810425,67.5909424,78.0733337,88.7701416,125.492218
		c22.6844482,50.7895508,34.1866455,104.9780884,34.1866455,161.0608521
		c0,93.8580322-33.3328857,184.5174561-93.9682617,255.8980713L985.508728,941.0843506z"/>
	<path fill="#F2F2F2" d="M323.5271912,678.2144165c9.165863-96.4068604,53.2874756-185.7037659,124.617218-251.9545898
		C521.180603,358.425415,616.3297119,320.900238,716.0665894,320.5962524
		c78.8133545,0.2404175,154.6860352,23.5492859,219.7469482,67.4607544l-26.7479248,34.473114
		c-57.359314-38.065918-123.9849854-58.2882385-192.996582-58.528656
		c-180.5570679,0.6286011-329.7530212,135.3884277-348.9107361,314.2129517H323.5271912z"/>
	<path fill="#F2F2F2" d="M716.6879272,1218.2015381c-114.2390137-0.0091553-226.3500366-39.8178711-315.6832886-112.0935059
		c-44.4716187-35.9803467-82.1342468-78.8217773-111.942688-127.3338013
		c-30.8487854-50.2075195-52.4614716-105.2250977-64.2348938-163.5236206
		c-24.1088409-119.3724365-4.1614532-242.8947144,56.1651306-348.4565735l36.4151611,24.1772766
		c-54.0444336,95.9399414-71.8214569,207.8577881-50.0428467,315.6887207
		c43.0751953,213.2879028,232.2022095,368.0950928,449.6903687,368.0950928c0.0133057,0,0.012146,0,0.0254517,0
		c29.9767456-0.0012207,60.190918-2.9927979,89.8007202-8.8909912
		c237.4512329-48.6142578,395.9050903-273.171814,362.6085815-512.4961548l42.592041-8.6020508
		c18.2324219,125.9706421-11.6813965,252.848999-84.4838867,357.8173828
		c-74.0075684,106.7063599-184.8553467,179.8013306-312.1237183,205.8201294
		c-32.5843506,6.4995117-65.8166504,9.7980957-98.7473755,9.7980957
		C716.7133179,1218.2015381,716.7012329,1218.2015381,716.6879272,1218.2015381z"/>
	<path fill="#F2F2F2" d="M1155.6925049,588.6032104c-56.4255371-195.291687-236.9692993-331.2790222-440.6796265-331.2790222
		c-29.9682617,0-60.1812134,2.9915161-89.7994995,8.8915405
		c-107.8781128,22.0862427-204.0191345,82.2172241-271.2637024,169.5381775l-36.4091187-24.1742554
		c73.6696472-96.8422546,179.6802063-163.4970093,299.0798035-187.9098358
		c32.5770874-6.4977264,65.81427-9.7950439,98.7643433-9.7950439c224.5115356,0,422.3478394,150.2823334,482.9650269,366.1130981
		L1155.6925049,588.6032104z"/>
	<path fill="#F2F2F2" d="M716.052063,897.9801025c-48.3375854-0.3191528-93.7320557-19.3708496-127.8206787-53.6477661
		c-34.1151733-34.3053589-52.9035034-79.8464355-52.9035034-128.2342529c0-39.0148926,12.1028442-75.9835205,35.0623169-107.2871094
		l30.6392822,32.0720825c-14.6038818,22.4465332-22.3030396,48.3641968-22.3030396,75.2150269
		c0,75.6256104,61.5837402,137.7240601,137.2796021,138.427124
		c65.3515625-0.6073608,121.1884766-46.6534424,134.4152832-110.0963135h44.1022339
		C880.8522339,831.779541,805.1067505,897.3933105,716.052063,897.9801025z"/>
	<path fill="#F2F2F2" d="M848.1032104,678.2144165c-16.7415161-58.835083-70.4746704-99.9845581-132.005127-100.5501709
		c-23.4959717,0.2149658-46.4845581,6.380249-66.8206787,17.8660889l-30.7579346-32.1937866
		c29.1022949-18.8530884,62.7064209-28.9061279,97.5653076-29.1338501
		c85.6804199,0.560791,159.0800171,60.7626343,176.6826172,144.0117188H848.1032104z"/>
	<path fill="#F2F2F2" d="M716.0593262,1538.8486328c-206.1882935-0.300415-403.0084229-77.1038818-554.8131714-216.3812256
		l30.8984528-31.0231934c143.7240448,131.2911377,329.579834,203.7036133,523.9002075,204.0063477
		c421.9274902-0.6588135,762.5783691-330.142334,777.6218262-751.0216675h43.4396973
		c-3.604248,106.6536865-27.3521729,209.8259277-70.6151123,306.7311401
		c-42.543457,95.2944336-102.1518555,180.7211914-177.1719971,253.9075928
		c-75.105957,73.2706299-162.0787354,130.7752686-258.5031738,170.9169922
		c-99.8179932,41.5546875-205.7219849,62.7053223-314.7712402,62.8640137H716.0593262z"/>
</g>
</svg>
