<svg xmlns="http://www.w3.org/2000/svg" xmlns:xlink="http://www.w3.org/1999/xlink" width="122.5" height="99.6"><style></style><defs><path id="SVGID_1_" d="M0 0h122.5v99.6H0z"/></defs><clipPath id="SVGID_2_"><use xlink:href="#SVGID_1_" overflow="visible"/></clipPath><path d="M38.5 99.6c46.2 0 71.5-38.3 71.5-71.5 0-1.1 0-2.2-.1-3.2 4.9-3.5 9.2-8 12.5-13-4.5 2-9.4 3.3-14.4 4 5.2-3.1 9.2-8 11.1-13.9-4.9 2.9-10.2 5-16 6.1-4.5-5-11-8.1-18.3-8.1-13.9 0-25.1 11.3-25.1 25.1 0 2 .2 3.9.6 5.7-20.8-1-39.4-11-51.8-26.2-2.2 3.7-3.4 8-3.4 12.6 0 8.7 4.4 16.4 11.2 20.9-4.1-.1-8-1.3-11.4-3.1v.3c0 12.2 8.7 22.3 20.2 24.6-2.1.6-4.3.9-6.6.9-1.6 0-3.2-.2-4.7-.5 3.2 10 12.5 17.3 23.5 17.5C28.6 84.6 17.8 88.6 6 88.6c-2 0-4-.1-6-.4 11.1 7.2 24.3 11.4 38.5 11.4" clip-path="url(#SVGID_2_)" fill="#fff"/></svg>