<svg xmlns="http://www.w3.org/2000/svg" xmlns:xlink="http://www.w3.org/1999/xlink" width="128" height="76"><style></style><defs><path id="SVGID_1_" d="M0 0h128v76H0z"/></defs><clipPath id="SVGID_2_"><use xlink:href="#SVGID_1_" overflow="visible"/></clipPath><path d="M125 5.1c.9-3 0-5.1-4.2-5.1h-14c-3.6 0-5.2 1.9-6.1 4 0 0-7.1 17.4-17.2 28.6-3.3 3.3-4.7 4.3-6.5 4.3-.9 0-2.2-1-2.2-4V5.1c0-3.6-1-5.1-4-5.1h-22c-2.2 0-3.6 1.7-3.6 3.2 0 3.4 5 4.2 5.6 13.6v20.6c0 4.5-.8 5.3-2.6 5.3-4.7 0-16.3-17.4-23.1-37.4C23.7 1.6 22.4 0 18.8 0h-14C.8 0 0 1.9 0 4c0 3.7 4.7 22.1 22.1 46.4C33.7 67 50 76 64.8 76c8.9 0 10-2 10-5.4V58c0-4 .8-4.8 3.7-4.8 2.1 0 5.6 1 13.9 9 9.5 9.5 11.1 13.8 16.4 13.8h14c4 0 6-2 4.8-5.9-1.3-3.9-5.8-9.6-11.8-16.4-3.3-3.9-8.2-8-9.6-10.1-2.1-2.7-1.5-3.9 0-6.2 0-.1 17.1-24.1 18.8-32.3" clip-path="url(#SVGID_2_)" fill-rule="evenodd" clip-rule="evenodd" fill="#fff"/></svg>